<svg xmlns="http://www.w3.org/2000/svg" xmlns:xlink="http://www.w3.org/1999/xlink" fill="none" height="135" viewBox="0 0 228 135" width="228"><clipPath id="a"><path d="m.705566.103516h227v134h-227z"/></clipPath><g clip-path="url(#a)" fill="#000"><path d="m183.189 107.447-1.287-.878h-1.573l-3.146-1.223-.229.288-.943-.936h-2.86l-3.161.288-1.158-.705-2.217-1.583-1.573.417-1.287.648-.286-.36v-.288h-1.73v.648l-1.287.518-1.873-.518-.873-1.598-1.973.533-.944-.231v-.302h-2.202l-3.804-1.583-7.15.302-.929-.9499-1.573.3019v.648l-1.588.936h-2.202l-1.816.647-2.217 1.296-.286.288-4.719.23-1.287 1.065h-.929l-.944-.36-.629.648-1.587-.288-1.573.935-2.503.648-4.719.936-.358.935h-.286l-.357-.288-.286.936h-.229v.964l-.415.878h-.286l-.371 2.001.643 1.583-.643 1.18-.515 2.879.872 2.749h2.217l1.859.648v.417h.929v-.417l1.287-.231.644.648 1.23 2.102 3.489 3.583 1.23-.403 3.789-.949.229-.231 2.631.231.93.647 4.719-.878 3.146 1.583h1.573l-.401-.403 3.561-4.116 5.363-.648.514.648 1.287-.23 1.345 1.166 2.102 1.583 1.272-.936.301.418 2.86.23 1.272.936 1.874.417h2.502l2.446-1.583 1.344-2.001-1.344-1.166-3.661-2v-1.584l-2.217-.23v-.417h-.944l-1.515-.533-1.33-.403v-.245l-1.287.648-.301.302-1.801-.302v-.374l.529-1.583 3.789-1.828-.643-1.584-2.102-1.583-1.345.648-.929 1.166-1.916.705v.892l.343.403.929.936v.95l-.929.633h-6.65l-.929.648-.229-.403-3.561.935-.929-.532-.243-1.583 1.816-2.879 1.973-.705 2.517-2.217h2.217l3.675-2.116.343.288.929.231.644-.519 2.502-.647.301-.418h1.916l.701-.518.243.288 1.573 1.295.229-.359h1.043l.53.878 1.344-.519h3.375l4.218.461v.417h.93l3.36-.417.701.648v.791h.872l1.974.245 2.102-1.18 1.573.23 1.287-1.166zm-87.7452 8.636-.5291-.648-.4148.403v.245h-.6435v-1.18l.4148.302.8722-.705.9296.705v.23zm92.2352-8.636v1.353l-2.631 2.461-1.158.706-.93 1.295h-2.631l-1.573-.417-.929-.878-1.573.244-.873.634h-3.846l-.644.705h-1.573l-1.587-.936-1.573.231-1.159.705v.892l-1.287 1.584.644 1.583 3.375 1.353 1.988 4.318.643.647v2.001l-2.86 3.167-2.217.935-.286.23-1.287.418-1.573-.648h-2.273l-.229-.403-1.344.633h-.873l-.643-.633-2.503 1.281h-1.573l-3.803 1.583h-2.088l-2.86-.23h-.873l-.7-1.051-1.573-.532-.887.532-.929-.302-2.617.95-2.517-.95h-1.573l-.229-.878-1.344-.935-1.158 1.813v.302l.286.403-1.573-.705-1.345.705-1.158-.403-3.146-.532-3.16-.418-2.503-1.813-1.93-.705-2.503 2.518v.648l-1.287.705v.245l.358.403-1.287.533v.647l-1.159-.302-3.16.936-1.573-.634-.701.403h-.872l-1.33-1.05-2.86-.303h-.9295v-.23l-1.8161-.648-.4005-3.569-.529.633-.4147-.23h-.6435l.4147-2.289.8723-.647.7007 1.583v1.583l1.573.95.8723.403h.9438l.6292-.935h4.0903l2.86 1.165 1.573-.935 1.816-.202.929-2-1.573-1.166-.286.23-.929.288-1.287-.518v-1.583l-1.173-3.167.529-4.462-.529-.95.529-1.986-.286-.245 1.344-2.288v-3.109h.229l.644-3.872.929-1.583-.929-.878-.873.648-4.204-1.886-1.859.95-.243-.417-.701.705-2.2162-.288h-.6292l-.2431.633v.95h-.4004l-.5291.648v1.583l-.4147.288h-.9295l.9295-1.871v-2.879l.9438-.647-.3003-.3025.7007-1.281 2.7455-.3023 2.86 1.5833 1.859-1.5833 1.287.3023h5.363l1.573.6476.643.6334.286-.4031.243 1.0506 3.547 2.116h3.446l1.916-1.583 4.09-.533.229.302 2.502-1.3526 2.632-.5325.286-.3454 3.389-.3023.4-.403 1.573-.2303 3.389-1.2954 2.217 1.0507 4.719-.403.643.6477h1.573v.2303l1.573.7053.93-.7053.944.403.4-.403 1.573.7053h1.173l5.591.3454 3.146.5325 3.79 1.0506.943.533h1.573v.417l5.72.633 1.574.303.3.23 1.287-.878 2.731 1.295.93-.417 1.287.705 1.573 3.167.3.36z"/><path d="m43.8062 76.3583.2431.8924-.8295 2.965-.6149.072-2.8743 4.5338.1144.3023.429.2446-.2288.403.7007.9212.9724.5613 1.9878 1.3962.7865.4462.9009-.2447.858-2.0726-.2145-.8924.8437-.5613.3289-.5758-.1001-.2303 1.9877-2.7203 1.287-.3598.3432.7197.3861.2303.6149-.1728.2574.4894.3146.1727-.0858.144.1573.662.3861-.1007-.2717.8924-.3289.5757v.331l-1.1726 2.6484-.715 2.1589-.4719.2591-.1859.3167-.143-.0864-.5577.9787.8866 1.0219 1.3013.5326 1.4157.5181 1.9305.6909.2431.5613 1.2012.4606h.329l.572.3311-.0858.1439 1.2584.9643.5005-.1439.4576.7053.9009.0863 1.5587 1.3242.3861 1.0795.143 1.5687-.9152 1.281-2.431.115-2.3166-1.338-.615.172-1.8447-1.266-.0429-.346-.286.173-.9581-.5612-.143-.6621-1.7875-1.0219-3.0316-1.756-.8151.1008h-.3289l-.1573-.6189-.858-.1584-3.1461-1.8135-4.5617-2.2021-.2431-.5758-2.145-1.0507-.8866-.2734.1001-.1728-.7436-.9499v-2.2453l2.8028-4.3899.8723-1.5545 1.1011-1.9287.6578-.1439.0715-.7196.6435-1.1227.8008-.8204 1.001-.5182 1.0582-.1007z"/><path d="m68.7884 64.9303-1.9877-1.6697-1.7017-1.4393-1.43-.3598-.7722-.4318-1.0296-.878v.3743l-.9295-.2879-2.6741-1.2954-.2431.2879-1.0583.3022-.9295.6621.0858.3454-1.2298 2.4613.7436 3.2816.5148.4174 1.0153 2.965.3433-.0864v.6333h.2573l.5864.9788 2.2594 2.2309 1.2012 1.0075h.3146l.3146.5901 1.7589.6621 1.7017 1.4393 1.0296-.1007.9867.8204h3.1175l2.288-1.5833.9295-3.5695h-.3432l-.2145-1.0363h.2288l-.2002-1.0363-.6721-.3454-.1144-.9068-.5291-1.0938-1.8304-1.5401-.3575-.9356zm3.618-4.6059 2.717 2.6628.9581 1.2954.6006.2878.6292 1.7128.8437.9787.429 1.5401.6435 1.4393.2288 3.9149-.0858 1.4394-.6721 1.5256-3.2747 3.6703h-.6149l-1.001 1.209-1.1869.4606-1.8018-.3455-1.0583.5758-1.1726-.3455h-.2288l-.4147.5038-.8866-.4174-1.5587.1295-1.43-.3022-1.9734-2.2597-1.9019-.7485-2.0592-1.7272h-.6579l-.429-1.2234h-.7722l-3.7466-3.4831v-.6765l-.3432-.2879-.3432.0864.1859-.2159-.9724-1.0363-.8151-2.7347-.3575-.3022.3146-.4174-.429-1.2235.1144-2.2165h.3146v-.9931l1.001-.8924.429-1.8711.3575-1.1515h.9009l2.5454-2.6051 2.2738-.4174.572-.3167 4.29-.5757.5005.4174 1.0868.1152v.259h.286l.3146-.3742.1573.1295v.3311h.4147l1.2441.2447v.2591l1.859.4749.901 1.4393 1.1439.3599.5578 1.0651.8008.0719.1144.3167.1287.1151h.6578z"/><path d="m90.7962 44.9814-1.6016-2.0438-1.43-1.7559-1.3442-.6621-.6149-.6333-.8294-1.0651-.0858.3742-.8437-.4894-2.3882-1.6983-.2859.2302h-1.0869l-1.0582.4606v.3599l-1.716 2.1445.0715 3.368.4004.5182.3861 3.1089h.429v.6333h.2574l.3718 1.0795 1.7589 2.6627.9581 1.2378h.3147l.1859.6477 1.5873 1.0075 1.43 1.756 1.0439.1295.7865 1.0075 3.0459.6909 2.5597-1.0651 1.6589-3.3104-.3433-.1008v-1.0651h.2288v-1.0506l-.5863-.4894.0858-.9068-.3003-1.1802-1.43-1.8855-.2288-1.0219zm4.4902-3.7566 2.1022 3.1809.6721 1.4393.5434.4174.2431 1.7992.6292 1.137.1001 1.6121.3432 1.5112-.572 3.8718-.3718 1.3386-.9724 1.3529-3.9469 2.8786-.6006-.1583-1.2298.9787-1.2584.2016-1.6874-.7197-1.1583.3454-1.0725-.5757h-.2288l-.5148.403-.7722-.5901-1.5587-.1871-1.3156-.6045-1.4301-2.6196-1.716-1.1226-1.6445-2.1158-.6578-.1008-.1716-1.2954-.7436-.2015-2.9458-4.1884.1001-.6621-.2717-.3598h-.3575l.2288-.1727-.7293-1.209-.2431-2.8787-.286-.3598.3575-.2878-.1716-1.281.5863-2.1446h.2431l.1859-.9787 1.1583-.6477.858-1.7848.5863-1.0507.9009.144 3.0173-2.0151h2.3023l.6293-.1871 4.29.3023.4004.5181 1.0439.3311v.2734l.2717.0864.3861-.3023.1287.1584-.1144.3166h.4004l1.1726.4894v.2734l1.7017.8492.6149 1.5257 1.0439.5901.329 1.1659.7579.2303v.331l.1.1295.6579.1152z"/><path d="m112.518 25.2628h-.329l-.1-.1871-2.316-1.3242v-.2879l-.844-.3166-.186.2735-2.603-.8636-1.83.9355-1.344.1728v.5325l-.258-.1583-.786.9211.715 1.8999-.258.1296.959 1.2666.972 1.4393.858 1.3385v.7485l.887 1.3097 2.23 4.1021h.329l.301 1.612.943 1.4393v.8348l.186-.0863h.215l.3.5901v.475l-.186.1007.758.6765-.071.2303h1.029l2.045-.8492.129-.5757.758-.6189.729-.547-.2-.4174.844-1.1658-.272-.1871.686-1.0795-.2-2.8786h.143l-.415-2.3029-.958-.4318.358-1.4393-1.673-3.6415zm8.68 5.5989.815 2.087-.071 3.368h.343l-.572 3.0082-.329.1727-.257 1.137-.586 1.7848-.544.2735-1.158 2.1733-.987.5038-.114.7916-1.759.9212-.172.3166-1.301.2447-1.559 1.4393-.114-.2159-.987.4894-.543.2878-.615-.1151-.472.4318-.186.0863-.972-.9355-1.087-.7053-.301-1.5976-.9-.806.185-.0864-.386-1.7991-1.015-.547-.5-2.015-2.16-1.8279-.214.1151v-2.0726l-.701-.3886-.558-1.4393-.214-.0864-1.201-2.3892-.2721-.1008.1287-.5757-.6435-.9212-.1859.1008-.2145-1.7272-.7579-.878-1.2298-2.1014-.9581-1.4393-.6292-1.2666.4004-1.1226 1.573-1.353 1.144-.5757.6292-.8348 1.2017-.1008.857-1.1226.916-.2735 2.86-.9787.958.259 1.673-.6189 3.532.7197 2.402 1.2378-.128.3886 1.516.9931 1.229.3455-.143.3454 1.173.8924 1.773 3.5407.944 1.3386 1.43 2.4468z"/><path d="m162.64 26.227.772 3.5552-.157.0287-.143.8636-1.23 1.5977-1.988.3454-2.245-.9931-1.144-1.7704-.028-1.137-.229-1.3818-.229-1.2954-.715-1.4825.329-2.49-.93-3.699-.929-.5038-6.235.7917-.415 1.209 1.202 7.0382.429 2.49-.415.4462.329.2447.686 2.7779-1.029 1.7703-.53.7629-2.145.3742-1.501-.4174.186-.6477-1.931-1.7704-1.015-7.0814.286-.0432-.214-2.2309-.072-.4462-.772-.5469.272-2.3173-.472-3.9437.243-.0432-.158-.9356-.271-.1151.372-.5325-.787-.7341.358-.5325-.544-1.7128-.672-1.77038.029-1.97186-.243-.21589.629-1.91429.7-.79162.644-.10075.172-.50376.643-.10075.072.44618.972.28787.915 1.48249-.257.2015 1.201 1.39614.272 1.54006.2.17272-.258.71964.429 1.3098-.371.4462.286.2447.343.7772 1.416.7196.486-.0863.2-.2447 3.604-.878.043.2447.328.1583.558-.5613 2.159-.5901-1.072-2.37489.372-.44618-.644-2.1014.73-2.23093-.143-.89238 1.344-1.58324 1.959-.50376.844.97873.1.6189.529.40301.557 3.26724.873 1.18024-.143 1.84236 1.215 6.0739.901 3.5407.672 2.9793.801 1.9287z"/><path d="m180.816 16.67-.201-.1727-.629-1.4393.501-.4462v-.2159l-.286-.1727-.172-1.4394v-1.7703l-.601-.6333-.772 1.5545h-.214v1.2809l-.93 1.0939-.701 1.7704 1.359 1.4393-.286.1583-.472.9356 2.217.2159 1.43-1.0795.228-.6477zm7.85 14.8825-.5.4318v.9499l-.844.4462-1.544-.331v-.4606l-1.244-.6909-.272-.6189-.458-.2303.472-.4318-.443-.4749v-1.1083l-.801-2.1014v-1.1227l-1.702-1.3241-5.82-.144-1.816 1.7416-.2 1.3529-.315.9356-.2 1.353-.701 1.9286-1.587 1.0795-1.43.4606-.643-.6765-.158.1583-1.101-.8491v-.7485l-.658-.1727.229-1.1083.515-2.6771.729-2.8786.472-.9356.215-1.7416 1.673-3.0225v-1.4393l1.158-3.3248.529-1.9287 1.187-3.1521.2-1.12266.973-1.25221 1.187-3.32481v-1.56886l.829-.633297h2.016l.958-.719656.615.474976 1.302.31665.443.676477v1.56885l.643.38862.286.28786h.329l-.472.80602 1.073 1.88549-.229 1.12267v.66208l.215.15832h.443l.172 1.43932.443.38866.257 1.4393.129 1.1226 1.201 5.1096.701 1.137-.286.2015v.475l.286.3023.129 1.281.614 1.7991-.214.6189.2.2879.2 1.5832.358.3742-.186.95.644.475.4 2.6915z"/><path d="m206.87 36.0863-1.53-.3022-.743.3166-3.676-.9067-.586-.4174-1.616.1439-.357-.547-.887.2879-1.487-.7628-.572-.3167-.229-.3022-.243.2015-1.216-.878-.643-2.4037.858-2.8642.515-.2735.572-5.1959.572-.5613.143-2.2453-.057-2.0007.929-.9499-.5-1.2378.743-1.4537.272-2.2166.643-4.72093.286.05757.201-.12954-.358-.53254.4-.59012.415-1.22341.915-1.25221.329-.403 1.373-.10076.644.12954.929 1.02191-.057.28787.2.2015.486.10075-.314.15833-.1.43179.228.34544.372 2.36047-.858.92116-.2 3.36798-.572.5613-.329 2.6772-.643 3.2816-.201-.0432-.386 1.9143-.657 4.4187.314.734-.4 1.9863.071 1.1514.172 1.0076.214.2159.201.0287.314-.1007.729.5325 1.402-.1007 1.902.5469 1.015-.4318.443.0864.515.7484.243-.1295-.043.1583.358.5757.214-.2446.787.9211.386 1.3818-.215 1.0938.201.2447z"/><path d="m225.489 42.4191-1.473-.5325-.772.2015-3.489-1.4681-.529-.5038-1.616-.1007-.272-.5901-.929.1439-1.345-.9787-.5-.403-.186-.3311-.286.1583-1.058-1.0506-.286-2.4757 1.287-2.7059.557-.1871 1.345-5.052.657-.4606.487-2.2021.243-1.9862 1.072-.7917-.314-1.2954.958-1.3241.615-2.159 1.344-4.5626.272.1007.214-.1007-.272-.5757.501-.5326.586-1.13704 1.101-1.09388.386-.34543 1.359.10075.615.23029.758 1.16584-.1.25908.185.24469.458.1727-.343.1008-.157.4174.171.3742.015 2.3748-.987.7917-.715 3.296-.644.475-.729 2.5907-1.144 3.1377-.186-.0575-.672 1.8135-1.33 4.2748.2.7772-.686 1.8999-.115 1.1514.029 1.0219.172.2303.186.072.328-.0576.644.6333 1.401.1296 1.802.8348 1.058-.2735.429.1583.401.806.243-.0863-.057.1583.257.6189.257-.2159.63 1.0363.186 1.4249-.386 1.0507.171.2735z"/><path d="m16.4786 65.1461-.6578-.2015-.7293-1.4393-2.2165-.5901h-.8294l-.2861.1727-1.2727-.6621-.2002.2879h-2.47388l-.65781.8204.17161.2878-.61491.6621.61491.8348-.17161.2879-.2002 1.1083h-.2431l.2431.1727v2.8786l.2002.2879-.4433.8204 1.3585 2.2453h.35751l.74361.2879 1.42997-.5038.9439.5038 2.6598-1.4394.2145.2879.9009-.9499.1573.2878v.1727h.286v-.6189h-.286l.5005-1.4393h.1573v-.6621l.4576-1.1226h.4862zm-2.6598-13.5583h-3.1603l-1.11545.1583-1.73033-.4462-1.10111 1.4393h.2431l.2002.1728v3.5119l.45761.9499h2.21652v.1727h.45756l1.1011.4894 1.9735-.6621.6149-.6621h.4719l.6149-1.4393h.286l-.286-.1727.4433-2.2309zm8.2082 17.3581-1.1011 3.8142h-.286l-.3718 1.7703-2.9601 2.231-.6578.1727-1.2727 1.4393-.6578-.3023-.2431.3023-1.7732.1583-.6578.4606h-2.50255l-1.93053.2015-.90091-.4606-1.7732.9212-2.67414-.9212-.81509-1.7703h-.286v-2.6916l.286-1.4393v-.4605l.37179-.4894-.37179-2.8786.17159-3.3392.2002-.2879-.65779-1.4393.45759-1.5689-.65779-.662.2002-.2879-.457614-.6189.743614-1.3242.37179-2.4756-.65779-1.3242.45759-.9067-.17159-1.3242v-1.1227l.37179-.4605-.37179-1.7704.17159-1.5689.4433-.9067 1.11541-.878 5.72004.2159h1.10108l.2575-.2159h.6577l1.1012.878 1.3156-.3742 2.1736.1583 2.5168 1.7847.6578.9068h.6578l.9009 1.612.2002 1.1083.1716 1.0795v.3742l.286.2879h-.286l-.3718 1.7847.2002.1583-.6578.95-1.1011 1.5688-.3003.6621-.3575.4606.3575.8204h.9581l1.5587 2.0726.6578 1.5689.4433 1.1226.1716 1.7704v1.5688z"/><path d="m41.7755 53.9051-2.1879-1.1226-.2002.1727h-2.3881l-.7293-.1727-1.3156 1.1226-.1716.8205-.286 2.0294-.4576 1.612.7436.6189v.5038l-.7436.6189.7436.9499h2.2165l.1716-.2878.2002.2878 1.5587.1584 2.2165-1.1083-.2002-.1727.4576-.4462.858-1.1227.2431-1.1083.2145-2.0726zm5.8202 6.2035.2145.2015-1.1154 1.1227.2574.2446-.9152 1.1227v.4894l-1.3156.8204-.4433.9067-.901.5038.615 1.281-.1717.6621v.6621l.901 1.1226-.2431.2447.4576.4462v1.9863l.6578.4605v1.5689l.4433.4606h-.1287v.8635l.3718 1.4394h.286l-.4576.662-1.7589 1.281h-1.7733l-.7293-.4605v-1.1083l-1.8018-2.6627.2431-.2447-1.8018-3.109-.2145-2.0294-.6578-1.281-.4433-.9499-1.2727-.4462-1.43.9068-.8151 1.612-.286 7.5276-.4576 1.353-.858.8348h-1.0726l-.5004.2878h-.615v-.2878l-1.43-.4606-1.1154-2.6052.286-.9067-.4862-.4462.6578-.878v-4.4187l.4433-.5038v-1.4393l.2145-4.8361.4433-.4893.6578-.2447-.8151-1.7848.1573-4.0012-.1573-.1728-.286-1.5688h.286l.1573-.2879-.4433-.3742.7293-1.4393-.7293-1.1083.7293-1.9431.6578-.9211 1.5731-.95h1.1011v.4606l.8294.6621 3.7752-.1727.6578-.4894.9009.4894 1.3156.1727v.2879l.2431.1727.6578-.4606 1.1154.2879 1.3156.8204.2432-.1584 1.9734 1.281.9009 2.0726.2002.6189.4576.2879.6578.6621v.8204l.2431.2879v4.6345z"/><path d="m125.603 52.4945-.444 2.4036-.5.6621v1.4105l.286.1584-.744 1.5688-.357 1.7848-.744.662-1.473 6.4913-.257.8204-.658 1.1227.172.7341-.83 1.3241-.286 2.4037-.815.9499-.457 1.281.457.7484-.901 1.4825-.5.4606-2.588-.1727-2.918-1.7704-1.101-1.4105-.372-2.6915-.286-1.9431-.829-.9067h-.286l-.2.9067.2.2159h.286l-.944 1.3674v1.3241h-.157l-.744 1.7272-1.115 2.0726-.372.4462-.272-.2878-.829.662-.744-.1583h-1.101l-.214.1583-.901-.8204-.658-1.5688-.157-.2159-1.4017-1.8567-.3718-1.7416v-.6621l.1716-.2015-.4576-.4606-.8151-2.6771.1573-.2159-.9009-1.3673.286-.2015-.4576-.4462-.4862-2.9074-.1716-.2447-.286-1.4825-.8151-1.612.4576-1.5689-.4576-.4606v-1.1226l-.9438-2.231-.4577-.4461h.2861l.1716-.2159-.4577-.9068-.3717-3.5119-.4434-.4894v-1.9575l.6578-1.1082h.615l.286-.7485 1.4729.4606.286-.1727.4576-.2879.8151.95v.4605l.3003.1584h.3718l1.3868 2.5332v.662l-.4859.4462 1.6019 1.9431.157 1.5689.458.5037v1.5689l.486.3742-.286.2878v.619l.457.5037v1.5689l.444.6189.214.6621.444 2.0582v.1727l.286.2015h.371l.458-1.7704h.286l.372-.4605-.215-.2015.944-1.1227v-1.5689h.172l1.315-3.0657 1.845-.734 1.115.2878.815.4462-.2.1727.658.95-.172.1583.372.5037-.2.1584.443.4606.215 1.5688 1.101 1.3242.3-.2015v.6621l-.3.2015.3.2446h.329l-.171 1.1227v1.1083l.657.5037-.2.1584.2.2158 1.102-.3742v-1.612h.257l.372-1.1227-.172-.2446v-.6621h.172l1.387-2.893-.286-.1584.743-.9643v-2.015l1.316-3.0658.901-2.893.658-1.4105.815-.6189 1.859-.4894h.357l.744.6621h.658l.658 1.5688-.487.5038.286.1583.201 1.5689v1.4105z"/><path d="m141.719 62.7135-.215-.1727-.657-1.4394.5-.4461v-.2015l-.286-.1728-.214-1.4393v-1.684l-.615-.6189-.744 1.5689h-.2v1.281l-.901 1.1226-.658 1.7704 1.43 1.4393-.286.1583-.457.95 2.216.1727 1.43-1.1227.2-.6621zm8.208 14.6666-.486.4606v.9067l-.829.4606-1.559-.2879v-.4605l-1.273-.6621-.286-.6189-.457-.2015.457-.4606-.457-.4606v-1.1083l-.858-2.0726v-1.1082l-1.731-1.281h-5.834l-1.759 1.7703-.172 1.4393-.286.8636-.157 1.4393-.658 1.9431-1.559 1.1227-1.43.4893-.657-.6621-.158.1728-1.115-.8348v-.7485l-.658-.1583.2-1.1227.458-2.6771.658-2.8786.457-.95.158-1.7415 1.601-3.0658v-1.4393l1.073-3.3536.486-1.943 1.115-3.1809.158-1.1227.943-1.281 1.116-3.3536v-1.6408l.815-.6621h2.016l.944-.734.615.4462 1.316.2878.457.6621v1.5689l.658.3742.286.2878h.157l-.443.8348 1.101 1.8568-.2 1.1226v.6621l.2.1583h.458l.2 1.4393.458.3743.286 1.4393.157 1.1226 1.315 5.0808.744 1.1227-.286.2015v.4606l.286.2878.172 1.281.657 1.7704-.214.6333.214.2878.244 1.5689.371.3742-.171.9499.658.4462.4 2.5908z"/><path d="m169.661 53.905-2.202-1.0651-.2.1727h-2.388l-.744-.1727-1.315 1.1227-.158.8204-.286 2.0294-.457 1.612.743.6189v.5038l-.743.6189.743.9499h2.217l.157-.2878.215.2878 1.558.1584 2.217-1.1083-.2-.1727.443-.4462.872-1.1227.243-1.1082.201-2.0727zm5.835 6.2034.2.2015-1.087 1.1659.243.2447-.901 1.1226v.4894l-1.315.8204-.458.9068-.901.5037.615 1.281-.157.6621v.6621l.901 1.1226-.243.2447.443.4462v1.9863l.658.4605v1.5689l.457.4606h-.2v.8636l.358 1.4393h.286l-.444.6621-1.773 1.2809h-1.759l-.743-.4605v-1.1083l-1.716-2.6052.243-.2446-1.816-3.109-.201-2.0294-.657-1.281-.458-.9499-1.273-.4462-1.43.9068-.829 1.612-.286 7.5276-.443 1.3529-.873.8348h-1.058l-.5.2879h-.615v-.2879l-1.43-.4605-1.101-2.6052.286-.9068-.501-.4461.658-.878v-4.4187l.457-.5038v-1.4393l.201-4.8361.457-.4893.658-.2447-.829-1.7848.171-4.0013-.171-.1727-.286-1.5688h.286l.171-.2879-.457-.3742.743-1.4393-.743-1.1083.743-1.9431.658-.9211 1.559-.95h1.115v.4606l.815.6621 3.776-.1727.657-.4894.916.4894 1.315.1727v.2878l.243.1728.658-.4606 1.101.2878 1.316.8205.243-.1584 1.973 1.281.901 2.0726.215.6189.443.2879.658.6621v.8204l.257.2878v4.6346z"/><path d="m200.764 50.724v.2015l.2.2878-1.101 1.4537-.214 1.6121h-.243l-1.102 2.4756-.829 1.1227-.286 1.3241-.658.6621v.6189l-.901.4462-1.115 2.2309.458.6621-.458.9644.257 3.3392h-.257l-.2 3.1521h-.172l-.486.3598.2 2.5332h-.2l-.615 2.6771-.944 1.281v.4606l-.901.5037-1.773-.3022-1.115-1.7704-.158-2.0294-.486-1.1083v-1.7847-2.8931l.486-2.1877-.657-1.7848v-2.5188l-1.402-2.2309-.157.2879v-.6621l-1.402-2.0294-1.101-2.0727-1.315-1.2809-.615-2.0583-.286-.1727h-.372l-.458-1.281-.657-.734.371-.878-.171-1.1083.457-.9211 1.731-.8204 1.759 1.1226h.657l1.116 1.7272.729.2159v.6621l.83.9068.457 1.5688.2.2015.901.6189h.487l.829 2.0726 1.358.9068h.487l1.115-2.0294.372-.4462v-.6621l.729-.95v-.6189h.172l.2.2447.257-.2447v-.662l.201.2015.443-.3743-.157-.2878v-.4462h.371l1.559-2.9074 1.115-.2015.444.5037.171-.3022h.487v.3022l.457.3743.157-.2159 1.116 1.1226z"/></g></svg>