<svg xmlns="http://www.w3.org/2000/svg" xmlns:xlink="http://www.w3.org/1999/xlink" fill="none" height="390" viewBox="0 0 525 390" width="525"><clipPath id="a"><path d="m0-8h524.021v398h-524.021z"/></clipPath><g clip-path="url(#a)" fill="#000"><path d="m84.6144 303.116c-20.7891-1.715-30.5398-7.257-33.3908-12.803-.4348-.79-.6784-1.671-.7115-2.572-.0331-.902.1454-1.798.5211-2.618 3.8982-9.989 27.2978-20.605 35.836-23.885 11.0785-3.901 20.2428-6.715 25.4688-8.079l1.779-.396c8.117-1.404 70.865-6.323 136.504 35.479-49.364 10.656-146.024 16.513-166.0066 14.874zm186.6856-82.707c-50.114.286-100.146-4.104-149.447-13.114-.023 2.499-.242 4.992-.656 7.457-.797 6.14-2.814 12.058-5.933 17.406-2.917 5.113-4.949 10.682-6.012 16.473-5.848 1.56-14.3508 4.172-24.2167 7.808l-2.6156 1.003c-25.9751 9.488-59.7818 24.863-77.41417 43.482-1.8715 1.758-3.28911 3.944-4.13127 6.37-.8421555 2.426-1.083726 5.021-.703992 7.561 1.327812 5.19 6.393562 9.212 15.092032 11.985 14.0759 3.967 28.6753 5.756 43.2918 5.306 15.6031 0 32.4488-1.209 50.6979-2.458h2.73c36.623-2.537 133.028-30.875 145.629-37.108l1.794-.898c-.034-.668-.034-1.338 0-2.006.421-5.125 2.518-9.969 5.968-13.78 3.883-5.44 6.263-11.809 6.899-18.464 1.187-6.716 1.029-13.6-.466-20.254-1.18-5.507-1.349-11.182-.501-16.749"/><path d="m176.144 289.962c1.352.234 2.744.061 3.998-.496 1.255-.558 2.316-1.475 3.049-2.637.734-1.161 1.107-2.514 1.072-3.887s-.476-2.706-1.267-3.828c-.792-1.123-1.898-1.985-3.179-2.478s-2.68-.595-4.019-.293c-1.339.303-2.558.996-3.504 1.992-.945.995-1.574 2.25-1.807 3.604 0 .07-.03.14-.041.22-.248 1.787.207 3.6 1.271 5.056 1.063 1.456 2.651 2.441 4.427 2.747"/><path d="m205.747 287.776c1.346.225 2.729.045 3.974-.517 1.244-.562 2.294-1.481 3.016-2.641.723-1.159 1.085-2.507 1.042-3.873-.044-1.365-.491-2.687-1.285-3.799-.795-1.111-1.901-1.961-3.178-2.443-1.278-.482-2.67-.573-3.999-.263-1.33.31-2.538 1.008-3.471 2.005s-1.55 2.249-1.771 3.598v.145c-.261 1.788.19 3.607 1.255 5.066 1.066 1.459 2.66 2.442 4.442 2.737"/><path d="m147.187 292.229c1.354.234 2.747.061 4.002-.497 1.256-.558 2.318-1.477 3.052-2.639.734-1.163 1.106-2.517 1.071-3.892-.035-1.374-.477-2.707-1.27-3.831-.792-1.123-1.9-1.985-3.183-2.478-1.282-.493-2.682-.594-4.022-.291-1.34.304-2.56.998-3.506 1.996-.945.997-1.574 2.253-1.806 3.608 0 .076-.025.151-.035.221-.247 1.786.209 3.599 1.272 5.055 1.063 1.455 2.649 2.441 4.425 2.748z"/><path d="m401.447 307.258c-14.897 17.015-19.892 20.525-26.091 20.023-.891-.095-1.743-.418-2.474-.938s-1.316-1.219-1.699-2.03c-4.134-6.439-9.671-42.936 1.167-73.616l1.328-1.088c.819.871 1.857 1.503 3.006 1.83 1.78.465 3.67.203 5.257-.727s2.74-2.452 3.206-4.232c.25-.997.271-2.038.061-3.044-.209-1.007-.642-1.953-1.268-2.768 37.449-30.418 82.144-50.591 129.715-58.546-19.076 21.192-101.636 113.111-112.203 125.136zm122.58-128.531-.822-1.68h-.27c-2.848-4.863-4.951-10.125-6.239-15.611-1.596-6.753-4.306-13.193-8.017-19.056-3.382-5.821-7.749-11.01-12.907-15.335-4.777-3.974-8.817-8.759-11.935-14.136-3.353-5.207-5.755-10.968-7.095-17.0148-3.321-13.1068-10.543-24.894-20.709-33.799-4.887-4.0762-8.996-9.003-12.131-14.5425-3.346-5.2164-5.761-10.9755-7.135-17.0199-1.493-6.5791-4.134-12.8432-7.802-18.5041-3.405-5.81839-7.785-11.00732-12.947-15.33992-1.604-1.43921-3.197-2.96367-4.836-4.71881h-105.328c-.915 6.11169-.728 12.33802.551 18.38383 1.519 6.901 1.689 14.0308.501 20.9964-.808 6.7402-2.94 13.2539-6.273 19.1661-3.161 5.3606-5.193 11.3111-5.973 17.4862-1.086 6.1088-.938 12.3735.436 18.4239 1.495 6.654 1.652 13.5392.461 20.2546-.584 4.195-1.655 8.308-3.192 12.256l-4.915-2.066c1.375-3.556 2.331-7.26 2.846-11.038 1.112-6.1061.967-12.3753-.426-18.4237-2.722-13.4459-.565-27.4227 6.083-39.4204 3.117-5.3624 5.132-11.2938 5.928-17.446 1.067-6.3082.907-12.7632-.471-19.0107-1.359-6.42206-1.583-13.03273-.662-19.53214h-145.468c-.831 5.30223-2.686 10.39167-5.462 14.98386-3.384 5.64808-5.513 11.95908-6.243 18.50418-1.194 6.7155-1.046 13.6014.436 20.2593 2.514 12.2866.533 25.0683-5.582 36.0154-3.399 5.8477-5.624 12.3039-6.549 19.0052-1.182 6.72-1.012 13.607.501 20.26 2.482 12.219.527 24.923-5.512 35.83-6.759 11.961-8.974 25.964-6.238 39.43.351 1.795.667 3.631.857 5.581-64.1109-12.642-102.4122-32.394-102.4122-52.769 0-19.161 34.6285-38.112 92.6962-50.7386l-1.127-5.1902c-62.4023 13.5798-96.9155 33.4478-96.9155 55.9688 0 23.419 38.9977 44.631 106.8965 58l.937-4.724v-.502c49.704 9.143 100.16 13.559 150.695 13.189.99-4.914 2.761-9.638 5.246-13.991 6.567-12.011 8.696-25.954 6.013-39.38-1.393-6.048-1.539-12.317-.431-18.424.782-6.142 2.79-12.065 5.902-17.416.466-.822.897-1.64 1.323-2.507 3.366 4.812 7.179 9.295 11.389 13.389 5.093 4.846 9.525 10.343 13.183 16.348 3.355 5.223 5.772 10.993 7.14 17.05 1.495 6.577 4.136 12.839 7.802 18.499 3.38 5.824 7.746 11.016 12.902 15.345 4.799 3.961 8.848 8.753 11.956 14.146 3.166 4.609 5.284 9.858 6.203 15.375 1.016 5.692 3.146 11.127 6.268 15.992l-.351 1.003c-1.753 3.279-10.372 21.347-13.999 67.367-3.393 43.517 3.201 57.995 5.341 62.764l.471 1.048c.604 1.902 1.683 3.618 3.137 4.984 1.453 1.367 3.231 2.339 5.166 2.824 1.274.334 2.586.502 3.903.501 6.285-.288 12.289-2.693 17.036-6.825 12.597-10.385 48.162-51.215 84.399-105.739 31.742-47.695 47.305-84.347 51.108-97.07l.396-1.288z"/><path d="m379.059 260.732c-1.321-.343-2.714-.287-4.003.163-1.288.449-2.415 1.27-3.237 2.36s-1.303 2.4-1.381 3.763c-.079 1.363.248 2.72.94 3.897.691 1.177 1.716 2.123 2.945 2.717 1.228.595 2.605.811 3.957.622 1.351-.188 2.616-.774 3.635-1.682 1.019-.909 1.746-2.099 2.089-3.421 0 0 0 0 0-.03.438-1.769.165-3.64-.762-5.21-.927-1.569-2.433-2.711-4.194-3.179"/><path d="m272.278 215.103v5.311c11.7 0 23.089-.196 34.398-.627l-.04-5.311c-11.229.432-22.658.627-34.358.627"/><path d="m379.06 282.706c-1.328-.348-2.729-.295-4.026.153s-2.433 1.271-3.262 2.365c-.83 1.094-1.318 2.41-1.4 3.78-.083 1.371.242 2.736.934 3.922s1.72 2.14 2.953 2.742c1.234.601 2.618.823 3.978.638 1.36-.186 2.634-.771 3.662-1.682 1.027-.91 1.762-2.105 2.111-3.433.461-1.78.198-3.67-.731-5.257-.928-1.586-2.448-2.74-4.224-3.208"/></g></svg>