<?xml version="1.0" encoding="utf-8"?>
<!-- Generator: Adobe Illustrator 25.3.0, SVG Export Plug-In . SVG Version: 6.00 Build 0)  -->
<svg version="1.1" id="Layer_1" xmlns="http://www.w3.org/2000/svg" xmlns:xlink="http://www.w3.org/1999/xlink" x="0px" y="0px"
	 viewBox="0 0 228 135" style="enable-background:new 0 0 228 135;" xml:space="preserve">
<path d="M202.4,95.8l-1.3-0.9h-1.6l-3.1-1.2l-0.2,0.3l-0.9-0.9h-2.9l-3.2,0.3l-1.2-0.7l-2.2-1.6l-1.6,0.4l-1.3,0.6l-0.3-0.4v-0.3
	H181v0.6l-1.3,0.5l-1.9-0.5l-0.9-1.6l-2,0.5l-0.9-0.2v-0.3h-2.2l-3.8-1.6l-7.1,0.3l-0.9-0.9l-1.6,0.3v0.6l-1.6,0.9h-2.2l-1.8,0.6
	l-2.2,1.3l-0.3,0.3l-4.7,0.2l-1.3,1.1h-0.9l-0.9-0.4l-0.6,0.6l-1.6-0.3l-1.6,0.9l-2.5,0.6l-4.7,0.9l-0.4,0.9h-0.3l-0.4-0.3l-0.3,0.9
	h-0.2v1l-0.4,0.9h-0.3l-0.4,2l0.6,1.6l-0.6,1.2l-0.5,2.9l0.9,2.7h2.2l1.9,0.6v0.4h0.9v-0.4l1.3-0.2l0.6,0.6l1.2,2.1l3.5,3.6l1.2-0.4
	l3.8-0.9l0.2-0.2l2.6,0.2l0.9,0.6l4.7-0.9l3.1,1.6h1.6l-0.4-0.4l3.6-4.1l5.4-0.6l0.5,0.6l1.3-0.2l1.3,1.2l2.1,1.6l1.3-0.9l0.3,0.4
	l2.9,0.2l1.3,0.9l1.9,0.4h2.5l2.4-1.6l1.3-2l-1.3-1.2l-3.7-2v-1.6l-2.2-0.2v-0.4h-0.9l-1.5-0.5l-1.3-0.4v-0.2l-1.3,0.6l-0.3,0.3
	l-1.8-0.3v-0.4l0.5-1.6l3.8-1.8l-0.6-1.6l-2.1-1.6l-1.3,0.6l-0.9,1.2l-1.9,0.7v0.9l0.3,0.4l0.9,0.9v0.9l-0.9,0.6h-6.6l-0.9,0.6
	l-0.2-0.4l-3.6,0.9l-0.9-0.5l-0.2-1.6l1.8-2.9l2-0.7l2.5-2.2h2.2l3.7-2.1l0.3,0.3l0.9,0.2l0.6-0.5l2.5-0.6l0.3-0.4h1.9l0.7-0.5
	l0.2,0.3l1.6,1.3l0.2-0.4h1l0.5,0.9l1.3-0.5h3.4l4.2,0.5v0.4h0.9l3.4-0.4l0.7,0.6v0.8h0.9l2,0.2l2.1-1.2L201,98l1.3-1.2L202.4,95.8z
	 M114.7,104.4l-0.5-0.6l-0.4,0.4v0.2h-0.6v-1.2l0.4,0.3l0.9-0.7l0.9,0.7v0.2L114.7,104.4z M206.9,95.8v1.4l-2.6,2.5l-1.2,0.7
	l-0.9,1.3h-2.6l-1.6-0.4l-0.9-0.9l-1.6,0.2l-0.9,0.6h-3.8l-0.6,0.7h-1.6l-1.6-0.9l-1.6,0.2l-1.2,0.7v0.9l-1.3,1.6l0.6,1.6l3.4,1.4
	l2,4.3l0.6,0.6v2l-2.9,3.2l-2.2,0.9l-0.3,0.2l-1.3,0.4l-1.6-0.6h-2.3l-0.2-0.4l-1.3,0.6h-0.9l-0.6-0.6l-2.5,1.3h-1.6l-3.8,1.6H166
	l-2.9-0.2h-0.9l-0.7-1.1L160,119l-0.9,0.5l-0.9-0.3l-2.6,0.9l-2.5-0.9h-1.6l-0.2-0.9l-1.3-0.9l-1.2,1.8v0.3l0.3,0.4l-1.6-0.7
	l-1.3,0.7l-1.2-0.4l-3.1-0.5l-3.2-0.4l-2.5-1.8l-1.9-0.7l-2.5,2.5v0.6l-1.3,0.7v0.2l0.4,0.4l-1.3,0.5v0.6l-1.2-0.3l-3.2,0.9
	l-1.6-0.6l-0.7,0.4h-0.9l-1.3-1.1l-2.9-0.3h-0.9v-0.2l-1.8-0.6l-0.4-3.6l-0.5,0.6l-0.4-0.2h-0.6l0.4-2.3l0.9-0.6l0.7,1.6v1.6
	l1.6,0.9l0.9,0.4h0.9l0.6-0.9h4.1l2.9,1.2l1.6-0.9l1.8-0.2l0.9-2l-1.6-1.2l-0.3,0.2l-0.9,0.3l-1.3-0.5v-1.6l-1.2-3.2l0.5-4.5
	l-0.5-0.9l0.5-2l-0.3-0.2l1.3-2.3v-3.1h0.2l0.6-3.9l0.9-1.6l-0.9-0.9l-0.9,0.6l-4.2-1.9l-1.9,0.9l-0.2-0.4l-0.7,0.7l-2.2-0.3h-0.6
	l-0.2,0.6v0.9h-0.4l-0.5,0.6v1.6l-0.4,0.3h-0.9l0.9-1.9v-2.9l0.9-0.6l-0.3-0.3l0.7-1.3l2.7-0.3l2.9,1.6l1.9-1.6l1.3,0.3h5.4l1.6,0.6
	l0.6,0.6l0.3-0.4l0.2,1.1l3.5,2.1h3.4l1.9-1.6l4.1-0.5l0.2,0.3l2.5-1.4l2.6-0.5l0.3-0.3l3.4-0.3l0.4-0.4l1.6-0.2l3.4-1.3l2.2,1.1
	l4.7-0.4l0.6,0.6h1.6v0.2l1.6,0.7l0.9-0.7l0.9,0.4l0.4-0.4l1.6,0.7h1.2l5.6,0.3l3.1,0.5l3.8,1.1l0.9,0.5h1.6v0.4l5.7,0.6l1.6,0.3
	l0.3,0.2l1.3-0.9l2.7,1.3l0.9-0.4l1.3,0.7l1.6,3.2l0.3,0.4L206.9,95.8z"/>
<g>
	<path d="M30.1,70.1c-0.8,0-1.4-0.6-1.4-1.4V55.4c0-0.8,0.6-1.4,1.4-1.4h9.4c0.7,0,1.3,0.6,1.3,1.3c0,0.7-0.6,1.3-1.3,1.3h-8v4.2
		h6.9c0.7,0,1.3,0.6,1.3,1.3s-0.6,1.2-1.3,1.2h-6.9v4.3h8.1c0.7,0,1.3,0.6,1.3,1.3s-0.6,1.3-1.3,1.3H30.1z"/>
	<path d="M43.6,67.8l4.8-5.9l-4.5-5.6c-0.3-0.3-0.4-0.7-0.4-1.1c0-0.8,0.6-1.4,1.4-1.4c0.6,0,0.9,0.2,1.3,0.7l4.1,5.4l4-5.3
		c0.4-0.5,0.8-0.8,1.4-0.8c0.6,0,1.3,0.5,1.3,1.3c0,0.4-0.2,0.7-0.4,1.1L52,61.8l4.7,5.9c0.3,0.3,0.4,0.6,0.4,1.1
		c0,0.8-0.6,1.4-1.4,1.4c-0.6,0-0.9-0.2-1.3-0.7l-4.3-5.6l-4.3,5.5c-0.4,0.5-0.8,0.8-1.4,0.8c-0.6,0-1.3-0.5-1.3-1.3
		C43.2,68.5,43.4,68.2,43.6,67.8z"/>
	<path d="M60.5,55.4c0-0.8,0.6-1.4,1.4-1.4h4.9c3.8,0,6.1,2.1,6.1,5.4v0c0,3.6-2.9,5.5-6.4,5.5h-3.2v3.9c0,0.8-0.6,1.4-1.4,1.4
		c-0.8,0-1.4-0.6-1.4-1.4V55.4z M66.6,62.4c2.1,0,3.5-1.2,3.5-2.9v0c0-1.9-1.4-2.9-3.5-2.9h-3.3v5.8H66.6z"/>
	<path d="M77.3,70.1c-0.8,0-1.4-0.6-1.4-1.4V55.4c0-0.8,0.6-1.4,1.4-1.4h9.4c0.7,0,1.3,0.6,1.3,1.3c0,0.7-0.6,1.3-1.3,1.3h-8v4.2
		h6.9c0.7,0,1.3,0.6,1.3,1.3s-0.6,1.2-1.3,1.2h-6.9v4.3h8.1c0.7,0,1.3,0.6,1.3,1.3s-0.6,1.3-1.3,1.3H77.3z"/>
	<path d="M118.1,55.3c0-0.8,0.6-1.4,1.4-1.4s1.4,0.6,1.4,1.4v13.5c0,0.8-0.6,1.4-1.4,1.4s-1.4-0.6-1.4-1.4V55.3z"/>
	<path d="M126.7,70.1c-0.8,0-1.4-0.6-1.4-1.4V55.4c0-0.8,0.6-1.4,1.4-1.4h9.4c0.7,0,1.3,0.6,1.3,1.3c0,0.7-0.6,1.3-1.3,1.3h-8v4.2
		h6.9c0.7,0,1.3,0.6,1.3,1.3s-0.6,1.2-1.3,1.2h-6.9v4.3h8.1c0.7,0,1.3,0.6,1.3,1.3s-0.6,1.3-1.3,1.3H126.7z"/>
	<path d="M140.7,55.3c0-0.8,0.6-1.4,1.4-1.4h0.3c0.7,0,1.1,0.3,1.5,0.8l8,10.4v-9.9c0-0.8,0.6-1.4,1.4-1.4c0.8,0,1.4,0.6,1.4,1.4
		v13.5c0,0.8-0.6,1.4-1.4,1.4h-0.1c-0.7,0-1.1-0.3-1.5-0.9l-8.3-10.7v10.2c0,0.8-0.6,1.4-1.4,1.4c-0.8,0-1.4-0.6-1.4-1.4V55.3z"/>
	<path d="M158.1,62.1L158.1,62.1c0-4.6,3.4-8.4,8.3-8.4c2.5,0,4.1,0.7,5.5,1.8c0.3,0.3,0.6,0.6,0.6,1.1c0,0.8-0.6,1.4-1.4,1.4
		c-0.4,0-0.7-0.1-0.9-0.3c-1.1-0.9-2.3-1.4-3.8-1.4c-3.1,0-5.3,2.6-5.3,5.7v0c0,3.2,2.2,5.7,5.3,5.7c1.7,0,2.9-0.6,4-1.5
		c0.2-0.2,0.5-0.3,0.9-0.3c0.7,0,1.3,0.6,1.3,1.3c0,0.4-0.2,0.8-0.5,1c-1.5,1.4-3.2,2.2-5.8,2.2C161.6,70.4,158.1,66.7,158.1,62.1z"
		/>
	<path d="M177.3,70.1c-0.8,0-1.4-0.6-1.4-1.4V55.4c0-0.8,0.6-1.4,1.4-1.4h9.4c0.7,0,1.3,0.6,1.3,1.3c0,0.7-0.6,1.3-1.3,1.3h-8v4.2
		h6.9c0.7,0,1.3,0.6,1.3,1.3s-0.6,1.2-1.3,1.2h-6.9v4.3h8.1c0.7,0,1.3,0.6,1.3,1.3s-0.6,1.3-1.3,1.3H177.3z"/>
</g>
<g>
	<path d="M87.8,133.7L87.8,133.7c-4.5,0.3-8.6-2.9-8.8-7.8c-0.1-2.4,0.3-4.1,1.3-5.6c0.2-0.3,0.6-0.6,1.1-0.6c0.8,0,1.4,0.5,1.5,1.3
		c0,0.4-0.1,0.6-0.3,0.9c-0.7,1.1-1.1,2.2-1,4c0.2,2.9,2.9,5.1,6,4.9l0,0c3.3-0.2,5.6-2.5,5.4-5.8c-0.1-1.5-0.7-2.9-1.4-3.8l-3,0.2
		l0.2,3.2c0,0.7-0.4,1.3-1.1,1.3s-1.3-0.5-1.3-1.2l-0.3-4.5c0-0.8,0.5-1.5,1.3-1.5l4.3-0.2c0.8,0,1.4,0.2,1.8,0.9
		c1,1.3,1.9,3.2,2.1,5.6C95.8,129.9,92.5,133.4,87.8,133.7z"/>
	<path d="M93.1,115.9l-12.6-7.4c-0.7-0.4-1-1-1-1.8l0-0.1c0.1-0.8,0.6-1.3,1.3-1.5l13.9-4.4c0.2-0.1,0.4-0.1,0.6-0.1
		c0.8,0.1,1.3,0.7,1.2,1.5c-0.1,0.7-0.5,1.1-1.1,1.3l-3.1,1l-0.9,7.8l2.9,1.7c0.6,0.3,0.8,0.8,0.7,1.4c-0.1,0.7-0.7,1.2-1.5,1.2
		C93.5,116.1,93.3,116,93.1,115.9z M89.7,104.9L83,107l6.1,3.5L89.7,104.9z"/>
	<path d="M95.5,98.3c-0.3,0.3-0.7,0.4-1.2,0.2c-0.7-0.2-1.1-0.9-0.9-1.6c0.1-0.4,0.3-0.6,0.5-0.7c1.4-1,2.3-2.2,2.8-3.9
		c0.5-1.7,0-3-1.2-3.3l0,0c-1.1-0.3-1.9,0.1-3.3,2.9c-1.7,3.1-3.2,4.7-6.1,3.9l0,0c-2.7-0.7-3.9-3.5-3.1-6.5c0.5-2,1.4-3.4,2.8-4.5
		c0.3-0.3,0.7-0.4,1.3-0.3c0.7,0.2,1.1,0.9,0.9,1.6c-0.1,0.2-0.2,0.5-0.4,0.7c-1.1,1-1.8,2-2.2,3.2c-0.4,1.6,0.1,2.7,1.2,3l0,0
		c1.2,0.3,1.9-0.2,3.5-3c1.7-3,3.3-4.4,5.9-3.7l0,0c2.9,0.8,4,3.6,3.1,6.8C98.4,95.1,97.2,96.9,95.5,98.3z"/>
	<path d="M90.3,76.1l-1.5,3.6c-0.3,0.7-1.1,1-1.7,0.7c-0.7-0.3-1-1-0.7-1.7l4.2-9.8c0.3-0.7,1.1-0.9,1.7-0.7c0.7,0.3,1,1,0.7,1.7
		l-1.6,3.6l11.2,4.8c0.7,0.3,1,1.1,0.7,1.9c-0.3,0.7-1.1,1.1-1.9,0.8L90.3,76.1z"/>
	<path d="M111.8,50.4L111.8,50.4c-3.3-3.2-3.6-8.3-0.1-11.9c3.4-3.6,8.5-3.4,11.8-0.3l0,0c3.2,3.1,3.5,8.3,0.1,11.9
		C120.2,53.7,115.1,53.6,111.8,50.4z M121.5,40.5L121.5,40.5c-2.3-2.2-5.7-2.4-8-0.1c-2.2,2.3-1.9,5.7,0.3,7.9l0,0
		c2.2,2.2,5.7,2.4,7.9,0C124,46,123.7,42.7,121.5,40.5z"/>
	<path d="M122.9,30.2c-0.5-0.7-0.3-1.5,0.3-2l0.2-0.2c0.6-0.4,1.1-0.3,1.7-0.2l12.6,3.8l-5.7-8.1c-0.4-0.6-0.3-1.5,0.3-1.9
		c0.7-0.5,1.5-0.3,1.9,0.3l7.9,11c0.5,0.7,0.3,1.5-0.3,1.9l-0.1,0.1c-0.5,0.4-1.1,0.4-1.7,0.2l-13-3.9l5.9,8.3
		c0.4,0.6,0.3,1.5-0.3,1.9c-0.7,0.5-1.5,0.3-1.9-0.3L122.9,30.2z"/>
	<path d="M141.8,25.3L141.8,25.3c-1.9-4.1-0.4-9.1,4.1-11.2c4.5-2.1,9.2-0.2,11.1,4l0,0c1.9,4.1,0.4,9-4.1,11.1
		S143.7,29.4,141.8,25.3z M154.4,19.5L154.4,19.5c-1.3-2.9-4.5-4.3-7.4-2.9c-2.9,1.4-3.8,4.6-2.5,7.4l0,0c1.3,2.8,4.5,4.2,7.4,2.9
		C154.8,25.5,155.7,22.3,154.4,19.5z"/>
	<path d="M159.4,10.3c-0.2-0.8,0.3-1.5,1-1.7l0.3-0.1c0.6-0.2,1.1,0.1,1.5,0.4l6.6,6.2l2.9-8.6c0.2-0.5,0.5-0.9,1.1-1l0.3-0.1
		c0.8-0.2,1.5,0.3,1.7,1l3.3,13.1c0.2,0.8-0.3,1.5-1,1.7c-0.7,0.2-1.5-0.3-1.7-1l-2.4-9.4l-2.4,6.7c-0.2,0.5-0.5,0.9-1,1
		c-0.5,0.1-0.9-0.1-1.3-0.4l-5.2-4.7l2.4,9.3c0.2,0.8-0.2,1.5-1,1.7c-0.8,0.2-1.5-0.2-1.7-1L159.4,10.3z"/>
	<path d="M180.4,5.7c-0.1-0.8,0.5-1.5,1.3-1.6c0.8-0.1,1.5,0.4,1.6,1.2l1.6,13.4c0.1,0.8-0.4,1.5-1.2,1.6c-0.8,0.1-1.5-0.4-1.6-1.2
		L180.4,5.7z"/>
	<path d="M188.1,11.6L188.1,11.6c0-4.6,3.4-8.4,8.3-8.4c2.5,0,4.1,0.7,5.5,1.8c0.3,0.3,0.6,0.6,0.6,1.1c0,0.8-0.6,1.4-1.4,1.4
		c-0.4,0-0.7-0.1-0.9-0.3c-1.1-0.9-2.3-1.4-3.8-1.4c-3.1,0-5.3,2.6-5.3,5.7v0c0,3.1,2.2,5.7,5.3,5.7c1.7,0,2.9-0.6,4-1.5
		c0.2-0.2,0.5-0.3,0.8-0.3c0.7,0,1.3,0.6,1.3,1.3c0,0.4-0.2,0.8-0.5,1c-1.5,1.4-3.2,2.2-5.8,2.2C191.6,19.9,188.1,16.2,188.1,11.6z"
		/>
</g>
<g>
	<path d="M91.4,58.9c-0.6-0.8-0.5-1.9,0.3-2.5l5.7-4.5c2-1.6,4-2.3,5.9-2.1c1.6,0.2,3,1,4.1,2.4l0,0c2,2.6,1.8,5.3,0.2,7.6l6.1,1.4
		c0.5,0.1,1,0.3,1.3,0.7c0.6,0.8,0.4,1.8-0.3,2.4c-0.6,0.5-1.3,0.5-1.9,0.4l-7.8-1.9l-3.5,2.8l3.4,4.3c0.6,0.8,0.5,1.9-0.3,2.5
		c-0.8,0.6-1.9,0.5-2.5-0.3L91.4,58.9z M103.5,59.8c2-1.6,2.5-3.6,1.2-5.3l0,0c-1.4-1.7-3.3-1.7-5.4,0l-4.1,3.2l4.3,5.4L103.5,59.8z
		"/>
</g>
</svg>
