<?xml version="1.0" encoding="utf-8"?>
<!-- Generator: Adobe Illustrator 25.3.0, SVG Export Plug-In . SVG Version: 6.00 Build 0)  -->
<svg version="1.1" id="Layer_1" xmlns="http://www.w3.org/2000/svg" xmlns:xlink="http://www.w3.org/1999/xlink" x="0px" y="0px"
	 viewBox="0 0 697 427" style="enable-background:new 0 0 697 427;" xml:space="preserve">
<style type="text/css">
	.st0{enable-background:new    ;}
</style>
<g>
	<g>
		<path d="M30.1,277.6l-0.2-0.1c-18.6-7.4-28.6-27.8-20.6-47.9c4-9.9,8.9-15.7,15.8-19.9c1.3-0.8,3.4-1.4,5.7-0.5
			c3.1,1.3,4.8,4.8,3.5,8.1c-0.6,1.5-1.7,2.3-2.8,3.1c-4.8,3-8.8,6.8-11.7,14c-4.9,12.1,2.2,25.8,14.8,30.9l0.2,0.1
			c13.6,5.5,27.3,0.5,32.7-13c2.5-6.3,2.8-12.7,1.4-18l-12.4-5l-5.2,13.1c-1.2,2.9-4.2,4.4-7.1,3.2c-2.9-1.2-4.2-4.3-3-7.3l7.4-18.5
			c1.3-3.3,4.9-4.8,8.2-3.5l17.7,7.1c3.2,1.3,5.2,3.6,5.8,7c1.5,7.2,1.7,16.5-2.3,26.5C69.6,277.7,49.4,285.4,30.1,277.6z"/>
		<path d="M85.1,216.8l-31.8-56.5c-1.6-3.1-1.7-6.2,0.4-9.1l0.4-0.5c2.1-2.9,5.1-3.6,8.5-3l63.3,13.9c1,0.1,1.8,0.5,2.6,1
			c2.7,2,3.3,5.6,1.3,8.3c-1.8,2.4-4.3,3-7.2,2.3l-14.2-3.3l-20.6,27.9l7.5,13c1.5,2.5,1.4,4.8-0.3,7c-1.9,2.6-5.5,3.2-8.1,1.2
			C86.2,218.7,85.7,217.9,85.1,216.8z M96.7,167.2L66,160.1l15.7,27.3L96.7,167.2z"/>
		<path d="M133.5,155.4c-1.9,0.1-3.6-0.5-5-2.1c-2.1-2.5-1.7-6.1,0.7-8.3c1.3-1.1,2.4-1.5,3.5-1.5c7.7-0.2,14.1-2.3,20-7.4
			c5.9-5,7.3-11,3.8-15l-0.1-0.2c-3.2-3.8-7.3-4.2-19.3,2.1c-13.9,7.1-23.5,9.1-31.9-0.8l-0.1-0.2c-7.9-9.3-5.6-22.4,5.2-31.6
			c6.8-5.8,13.7-8.7,21.5-9.6c1.7-0.4,3.8,0.2,5.3,2c2.1,2.5,1.7,6.1-0.7,8.3c-0.9,0.7-1.9,1.2-3.1,1.4c-6.6,0.9-11.7,2.8-16,6.5
			c-5.6,4.8-6.5,10.3-3.4,14l0.1,0.2c3.6,4.2,7.6,3.9,20.2-2.5c13.9-6.8,23.2-8,31,1.1l0.1,0.2c8.7,10.3,5.8,23-5.6,32.8
			C152.2,151.2,143.5,154.7,133.5,155.4z"/>
		<path d="M173.6,61.3l-15.2,8.3c-2.9,1.6-6.4,0.5-7.9-2.3c-1.5-2.8-0.5-6.3,2.3-7.9l41.6-22.7c2.8-1.5,6.3-0.4,7.8,2.4
			c1.5,2.8,0.5,6.3-2.2,7.8l-15.3,8.4l25.9,47.4c1.7,3.1,0.6,6.8-2.6,8.5c-3.1,1.7-6.8,0.7-8.5-2.4L173.6,61.3z"/>
		<path d="M224.5,30.7c-1-3.4,0.9-6.8,4.4-7.8l24.5-6.9c8.6-2.4,16.1-1.8,21.8,1.3c4.7,2.8,8.2,7.2,9.9,13.2l0.1,0.2
			c3.1,11.1-1.4,19.4-9.8,24.9L293,68.5c1.6,1.1,2.7,2.2,3.3,4.1c1,3.4-1.2,6.4-4.2,7.2c-2.7,0.8-4.8,0-6.8-1.5l-22.7-16.6L247.4,66
			l5.2,18.5c1,3.4-0.9,6.7-4.3,7.7c-3.4,1-6.8-0.8-7.8-4.3L224.5,30.7z M262.1,50.3c8.6-2.4,12.9-8.4,10.9-15.5l-0.1-0.2
			c-2.1-7.5-8.4-9.9-17.4-7.4l-17.6,4.9l6.5,23.1L262.1,50.3z"/>
		<path d="M305.6,40.1l0-0.2c-0.3-20,14.9-37.2,36.8-37.5c21.9-0.4,37.5,16,37.8,36.1l0,0.2c0.3,20-14.9,37.2-36.8,37.5
			C321.5,76.5,305.9,60.2,305.6,40.1z M367.1,39.1l0-0.2c-0.2-13.9-10.4-25.2-24.7-25c-14.2,0.2-23.9,11.7-23.7,25.6l0,0.2
			c0.2,13.9,10.4,25.1,24.7,24.9C357.6,64.3,367.3,52.9,367.1,39.1z"/>
		<path d="M407.8,13c0.9-3.5,4.2-5.4,7.7-4.6l1.3,0.3c3.1,0.8,4.3,2.7,5.4,5.2l23.1,53.6l10.9-42.5c0.8-3.3,4.2-5.2,7.4-4.4
			c3.5,0.9,5.3,4.2,4.5,7.5l-14.9,58.1c-0.9,3.5-4,5.4-7.5,4.5l-0.5-0.1c-2.9-0.7-4.3-2.6-5.4-5.3l-23.8-55.2l-11.2,43.9
			c-0.8,3.3-4.2,5.2-7.4,4.4c-3.5-0.9-5.3-4.2-4.5-7.5L407.8,13z"/>
		<path d="M479.8,64.4l0.1-0.2c9.9-17.4,31.8-24.4,50.8-13.5c19,10.9,24.1,32.9,14.1,50.4l-0.1,0.2c-9.9,17.4-31.8,24.4-50.8,13.5
			C474.9,103.8,469.9,81.8,479.8,64.4z M533.2,94.9l0.1-0.2c6.9-12,3.9-27-8.5-34.1c-12.3-7-26.5-2.1-33.4,9.9l-0.1,0.2
			c-6.9,12-3.9,26.9,8.5,34C512.2,111.8,526.4,106.9,533.2,94.9z"/>
		<path d="M582.4,93.6c2.6-2.5,6.5-2.4,8.9,0.2l0.9,1c1.9,2,2.2,4.3,1.6,6.5l-9.3,39.1l39.5-8c2.5-0.5,4.6,0.1,6.3,1.8l0.9,1
			c2.5,2.6,2.4,6.5-0.2,8.9l-43,41.5c-2.6,2.5-6.4,2.3-8.9-0.2c-2.3-2.4-2.3-6.5,0.2-8.8l30.8-29.8l-31,5.7c-2.4,0.5-4.4,0.1-6-1.5
			c-1.6-1.7-1.8-3.6-1.3-6l6.7-30.5l-30.7,29.7c-2.6,2.5-6.2,2.3-8.7-0.2c-2.5-2.6-2.4-6.2,0.1-8.7L582.4,93.6z"/>
		<path d="M646.8,167.9c3-1.9,6.7-1.1,8.7,1.9c1.9,3,1.2,6.7-1.8,8.6l-50.3,32.7c-3,1.9-6.7,1.2-8.6-1.8c-1.9-3-1.2-6.7,1.8-8.7
			L646.8,167.9z"/>
		<path d="M639.3,210.7l0.2-0.1c18.7-8,39.9-0.5,48.4,19.4c4.3,10.1,4.2,18.1,2.2,25.7c-0.5,1.7-1.5,3.3-3.6,4.2
			c-3.3,1.4-6.7,0-8.1-3.3c-0.7-1.6-0.7-2.9-0.4-4c1.7-6.1,1.9-11.8-0.8-18.2c-5.3-12.5-19.7-17.2-32.4-11.8l-0.2,0.1
			c-12.9,5.5-19.4,19-14,31.6c3,7,7.2,10.7,13.3,13.7c1.1,0.5,2.2,1.5,2.8,2.9c1.2,2.9-0.1,6.5-3,7.7c-1.8,0.8-3.5,0.5-4.9-0.1
			c-8.2-3.9-14.5-9.5-19-20.1C611.6,239.4,620.5,218.7,639.3,210.7z"/>
	</g>
</g>
<g>
	<g class="st0">
		<path d="M25.1,423.9c-3.6,0-6.3-2.8-6.3-6.3v-58.8c0-3.6,2.8-6.3,6.3-6.3h41.5c3.2,0,5.6,2.4,5.6,5.6s-2.4,5.6-5.6,5.6H31.3v18.6
			H62c3.2,0,5.6,2.5,5.6,5.7c0,3.2-2.4,5.5-5.6,5.5H31.3v19.2h35.8c3.2,0,5.6,2.4,5.6,5.6s-2.4,5.6-5.6,5.6H25.1z"/>
		<path d="M85.3,413.9l21.2-26.3l-20-24.8c-1.1-1.3-1.9-3-1.9-4.7c0-3.6,2.7-6.1,6.2-6.1c2.8,0,4.2,1,5.7,3.1l18.1,23.8l17.9-23.4
			c1.6-2.3,3.4-3.5,6.1-3.5c2.8,0,5.7,2.1,5.7,5.7c0,1.9-0.7,3.3-1.9,4.8l-20,24.9l21,26.2c1.1,1.3,1.9,2.8,1.9,4.7
			c0,3.6-2.7,6.1-6.2,6.1c-2.8,0-4.2-1-5.7-3.1l-19.2-25L95.3,421c-1.7,2.3-3.4,3.5-6.1,3.5c-2.9,0-5.7-2.2-5.7-5.8
			C83.5,416.9,84.2,415.5,85.3,413.9z"/>
		<path d="M160,358.8c0-3.6,2.8-6.3,6.3-6.3h21.8c16.7,0,27.1,9.5,27.1,23.9v0.2c0,15.9-12.8,24.4-28.6,24.4h-14.2v17.2
			c0,3.6-2.7,6.2-6.2,6.2c-3.6,0-6.3-2.7-6.3-6.2V358.8z M187.1,389.6c9.5,0,15.4-5.3,15.4-12.8v-0.2c0-8.5-6-12.8-15.4-12.8h-14.6
			v25.7H187.1z"/>
		<path d="M234.4,423.9c-3.6,0-6.3-2.8-6.3-6.3v-58.8c0-3.6,2.8-6.3,6.3-6.3h41.5c3.2,0,5.6,2.4,5.6,5.6s-2.4,5.6-5.6,5.6h-35.3
			v18.6h30.7c3.2,0,5.6,2.5,5.6,5.7c0,3.2-2.4,5.5-5.6,5.5h-30.7v19.2h35.8c3.2,0,5.6,2.4,5.6,5.6s-2.4,5.6-5.6,5.6H234.4z"/>
		<path d="M296.4,358.8c0-3.6,2.8-6.3,6.3-6.3h25.5c9,0,16,2.7,20.6,7.1c3.8,4,5.9,9.2,5.9,15.4v0.2c0,11.5-6.6,18.3-16.2,21.3
			l13.7,17.2c1.2,1.5,2,2.9,2,4.8c0,3.6-2.9,5.8-6,5.8c-2.9,0-4.6-1.3-6.1-3.3L324.8,399H309v19.2c0,3.6-2.7,6.2-6.2,6.2
			c-3.6,0-6.3-2.7-6.3-6.2V358.8z M327.3,387.9c9,0,14.7-4.6,14.7-11.9v-0.2c0-7.8-5.4-11.8-14.8-11.8H309v24H327.3z"/>
		<path d="M370.9,358.2c0-3.6,2.8-6.2,6.3-6.2s6.2,2.7,6.2,6.2v60c0,3.6-2.7,6.2-6.2,6.2s-6.3-2.7-6.3-6.2V358.2z"/>
		<path d="M408.8,423.9c-3.6,0-6.3-2.8-6.3-6.3v-58.8c0-3.6,2.8-6.3,6.3-6.3h41.5c3.2,0,5.6,2.4,5.6,5.6s-2.4,5.6-5.6,5.6h-35.3
			v18.6h30.7c3.2,0,5.6,2.5,5.6,5.7c0,3.2-2.4,5.5-5.6,5.5h-30.7v19.2h35.8c3.2,0,5.6,2.4,5.6,5.6s-2.4,5.6-5.6,5.6H408.8z"/>
		<path d="M470.8,358.4c0-3.6,2.8-6.3,6.3-6.3h1.3c3.2,0,4.8,1.5,6.5,3.7l35.7,46.2v-43.9c0-3.4,2.8-6.1,6.1-6.1
			c3.6,0,6.2,2.8,6.2,6.1v60c0,3.6-2.5,6.2-6.1,6.2h-0.5c-3,0-4.8-1.4-6.5-3.8L483.2,373v45.3c0,3.4-2.8,6.1-6.1,6.1
			c-3.6,0-6.2-2.8-6.2-6.1V358.4z"/>
		<path d="M548.3,388.4v-0.2c0-20.3,15.2-36.9,36.8-36.9c11,0,18.3,3.3,24.5,8.1c1.3,1.1,2.4,2.7,2.4,5c0,3.6-2.7,6.1-6.2,6.1
			c-1.7,0-3-0.5-3.8-1.2c-4.9-4-10.1-6.4-17-6.4c-13.6,0-23.6,11.3-23.6,25.2v0.2c0,14,9.9,25.3,23.6,25.3c7.7,0,12.6-2.4,17.9-6.8
			c0.9-0.8,2.2-1.4,3.8-1.4c3.2,0,5.9,2.7,5.9,5.8c0,1.9-0.9,3.4-2,4.5c-6.8,6-14.4,9.6-25.9,9.6
			C563.8,425.1,548.3,408.9,548.3,388.4z"/>
		<path d="M633,423.9c-3.6,0-6.3-2.8-6.3-6.3v-58.8c0-3.6,2.8-6.3,6.3-6.3h41.5c3.2,0,5.6,2.4,5.6,5.6s-2.4,5.6-5.6,5.6h-35.3v18.6
			H670c3.2,0,5.6,2.5,5.6,5.7c0,3.2-2.4,5.5-5.6,5.5h-30.7v19.2h35.8c3.2,0,5.6,2.4,5.6,5.6s-2.4,5.6-5.6,5.6H633z"/>
	</g>
</g>
</svg>
