<?xml version="1.0" encoding="UTF-8"?>
<svg id="Layer_1" data-name="Layer 1" xmlns="http://www.w3.org/2000/svg" viewBox="0 0 1165 510">
  <defs>
    <style>
      .cls-1 {
        stroke-width: 0px;
      }
    </style>
  </defs>
  <path class="cls-1" d="m40.24,192.87c0-8.68,6.7-15.38,15.38-15.38h62c21.82,0,38.94,6.45,50.1,17.36,9.18,9.42,14.38,22.32,14.38,37.45v.49c0,27.78-16.12,44.64-39.43,51.83l33.23,41.91c2.98,3.72,4.96,6.94,4.96,11.66,0,8.43-7.19,14.14-14.63,14.14-6.94,0-11.41-3.22-14.88-7.94l-42.16-53.82h-38.44v46.63c0,8.43-6.7,15.13-15.13,15.13s-15.38-6.7-15.38-15.13v-144.34Zm75.15,70.68c21.82,0,35.71-11.41,35.71-29.02v-.5c0-18.6-13.39-28.77-35.96-28.77h-44.39v58.28h44.64Z"/>
  <path class="cls-1" d="m503.26,205.76h-42.16c-7.94,0-14.14-6.45-14.14-14.14s6.2-14.14,14.14-14.14h115.32c7.69,0,13.89,6.45,13.89,14.14s-6.2,14.14-13.89,14.14h-42.41v131.44c0,8.43-6.95,15.13-15.38,15.13s-15.38-6.7-15.38-15.13v-131.44Z"/>
  <path class="cls-1" d="m611.39,331.26l64.48-143.85c3.47-7.69,9.67-12.4,18.35-12.4h1.49c8.68,0,14.63,4.71,18.1,12.4l64.48,143.85c1.24,2.23,1.74,4.47,1.74,6.45,0,8.18-6.2,14.63-14.38,14.63-7.19,0-12.15-4.22-14.88-10.66l-14.14-32.49h-84.32l-14.63,33.48c-2.48,6.2-7.69,9.67-14.14,9.67-7.94,0-14.14-6.2-14.14-14.14,0-2.23.75-4.46,1.98-6.94Zm113.59-49.11l-30.5-70.19-30.5,70.19h61.01Z"/>
  <path class="cls-1" d="m855.68,205.76h-42.16c-7.94,0-14.14-6.45-14.14-14.14s6.2-14.14,14.14-14.14h115.32c7.69,0,13.89,6.45,13.89,14.14s-6.2,14.14-13.89,14.14h-42.41v131.44c0,8.43-6.94,15.13-15.38,15.13s-15.38-6.7-15.38-15.13v-131.44Z"/>
  <path class="cls-1" d="m993.56,335.72v-142.85c0-8.68,6.7-15.38,15.38-15.38h100.94c7.44,0,13.64,6.2,13.64,13.64s-6.2,13.64-13.64,13.64h-85.81v45.14h74.65c7.44,0,13.64,6.2,13.64,13.89s-6.2,13.39-13.64,13.39h-74.65v46.63h87.05c7.44,0,13.64,6.2,13.64,13.64s-6.2,13.64-13.64,13.64h-102.18c-8.68,0-15.38-6.7-15.38-15.38Z"/>
  <path class="cls-1" d="m321.05,165.25h0s51.43-93.98,51.43-93.98l-5.95-3.26-50.25,91.81h0s-1.85,3.39-1.85,3.39l-1.6,2.93-.12.22.59.32h.02s5.59,6.38,5.59,6.38c2.47-.66,4.99-1.2,7.56-1.66l-5.41-6.14h0Z"/>
  <path class="cls-1" d="m280.34,129.86c0-.12-.02-.22-.02-.34-.88-9.4-5.04-18.26-11.75-24.97-7.69-7.71-17.92-11.97-28.84-11.97-22.5,0-40.81,18.31-40.81,40.81,0,10.94,4.26,21.17,11.97,28.84,7.74,7.71,17.97,11.95,28.84,11.95,1.79,0,3.57-.12,5.41-.37.42-.05.83-.12,1.25-.2,2.11-.32,4.21-.86,6.27-1.54l-1.15-3.4c-.59-1.13-1.13-2.28-1.64-3.43-1.86.61-3.75,1.05-5.68,1.27-.39.05-.76.1-1.13.12-1.13.15-2.23.2-3.33.2-7.69,0-14.98-2.59-20.9-7.34l17.92-17.92,2.99-2.99h0s.91.91.91.91l2.42-2.42h.17v-.17l.22-.22h33.24l.17.02v-.02h3.5c.1-1.08.15-2.2.15-3.28,0-1.3-.05-2.45-.17-3.52Zm-19.71-22.57l-17.23,17.23h0s0-24.38,0-24.38c0,0,0,0,0,0,6.32.66,12.26,3.13,17.23,7.15Zm-24.59,17.22l-17.22-17.22c4.82-3.89,10.74-6.46,17.22-7.17v24.39Zm-22.41-12.03l17.23,17.23h-24.41c.71-6.49,3.28-12.41,7.17-17.23Zm0,41.81c-4.04-4.94-6.49-10.89-7.15-17.23h24.38l-17.23,17.23Zm34.81-24.43l.15-.15,17.23-17.23c3.94,4.92,6.44,10.89,7.12,17.23.02.05.02.1.02.15h-24.53Z"/>
  <g>
    <path class="cls-1" d="m241.71,441.32v-42.04h18.13c4.68,0,8.32.94,10.9,2.82,2.58,1.88,3.87,4.54,3.87,7.99,0,2.28-.53,4.2-1.59,5.76-1.06,1.56-2.5,2.74-4.32,3.54-1.82.8-3.81,1.2-5.98,1.2l1.02-1.44c2.68,0,5,.41,6.94,1.23,1.94.82,3.45,2.04,4.53,3.66,1.08,1.62,1.62,3.63,1.62,6.04,0,3.56-1.31,6.33-3.93,8.29-2.62,1.96-6.58,2.94-11.86,2.94h-19.34Zm4.44-3.66h14.83c3.68,0,6.5-.63,8.47-1.89,1.96-1.26,2.94-3.27,2.94-6.04s-.98-4.71-2.94-5.98c-1.96-1.26-4.78-1.89-8.47-1.89h-15.31v-3.66h13.87c3.36,0,5.98-.64,7.84-1.92,1.86-1.28,2.79-3.18,2.79-5.7s-.93-4.47-2.79-5.73c-1.86-1.26-4.47-1.89-7.84-1.89h-13.39v34.71Z"/>
    <path class="cls-1" d="m298.27,441.32l19.22-42.04h4.38l19.22,42.04h-4.68l-17.65-39.45h1.8l-17.66,39.45h-4.62Zm7.57-11.23l1.32-3.6h24.44l1.32,3.6h-27.08Z"/>
    <path class="cls-1" d="m366.07,441.32v-42.04h15.73c3.56,0,6.62.57,9.19,1.71,2.56,1.14,4.53,2.78,5.92,4.93,1.38,2.14,2.07,4.73,2.07,7.78s-.69,5.52-2.07,7.66c-1.38,2.14-3.35,3.78-5.92,4.93-2.56,1.14-5.62,1.71-9.19,1.71h-13.27l1.98-2.04v15.37h-4.44Zm4.44-15.01l-1.98-2.1h13.15c4.2,0,7.4-.92,9.58-2.76,2.18-1.84,3.27-4.42,3.27-7.75s-1.09-5.97-3.27-7.81c-2.18-1.84-5.37-2.76-9.58-2.76h-13.15l1.98-2.1v25.28Zm24.26,15.01l-10.81-15.25h4.8l10.87,15.25h-4.86Z"/>
    <path class="cls-1" d="m471.46,441.68c-2.72,0-5.15-.45-7.27-1.35-2.12-.9-3.79-2.15-5.01-3.75-1.22-1.6-1.83-3.46-1.83-5.59,0-1.8.4-3.45,1.2-4.95.8-1.5,2.09-2.98,3.87-4.44,1.78-1.46,4.15-2.99,7.11-4.59,2.52-1.4,4.5-2.61,5.92-3.63,1.42-1.02,2.43-2,3.03-2.94.6-.94.9-1.95.9-3.03,0-1.56-.53-2.82-1.59-3.78-1.06-.96-2.57-1.44-4.53-1.44-2.12,0-3.77.53-4.93,1.59-1.16,1.06-1.74,2.43-1.74,4.11,0,.84.13,1.64.39,2.4.26.76.76,1.6,1.5,2.52.74.92,1.77,2.08,3.09,3.48l22.22,22.88-2.46,2.82-23.18-23.84c-1.4-1.48-2.51-2.77-3.33-3.87-.82-1.1-1.39-2.15-1.71-3.15-.32-1-.48-2.06-.48-3.18,0-1.8.43-3.37,1.29-4.71.86-1.34,2.09-2.38,3.69-3.12s3.48-1.11,5.65-1.11c1.96,0,3.67.33,5.13.99s2.6,1.61,3.42,2.85c.82,1.24,1.23,2.74,1.23,4.5,0,1.52-.37,2.94-1.11,4.26-.74,1.32-1.95,2.61-3.63,3.87-1.68,1.26-3.96,2.67-6.84,4.23-2.52,1.4-4.52,2.68-5.98,3.84-1.46,1.16-2.49,2.29-3.09,3.39-.6,1.1-.9,2.31-.9,3.63,0,1.52.43,2.85,1.29,3.99.86,1.14,2.06,2.02,3.6,2.64,1.54.62,3.31.93,5.32.93,2.8,0,5.3-.58,7.51-1.74,2.2-1.16,4.05-2.92,5.56-5.29,1.5-2.36,2.59-5.32,3.27-8.89l3.42,1.08c-.76,4-2.06,7.37-3.9,10.09-1.84,2.72-4.13,4.79-6.85,6.19-2.72,1.4-5.81,2.1-9.25,2.1Z"/>
    <path class="cls-1" d="m553.19,441.32v-42.04h4.44v42.04h-4.44Zm3.84-10.45l-.18-5.4,25.46-26.18h5.1l-18.56,19.46-2.52,2.7-9.31,9.43Zm26.36,10.45l-18.14-20.9,3-3.24,20.42,24.14h-5.28Z"/>
    <path class="cls-1" d="m613.91,441.32v-42.04h4.44v42.04h-4.44Z"/>
    <path class="cls-1" d="m658.22,441.32v-38.19h-14.77v-3.84h33.99v3.84h-14.77v38.19h-4.44Z"/>
    <path class="cls-1" d="m720.2,441.68c-3.16,0-6.09-.53-8.77-1.59-2.68-1.06-5.01-2.55-6.97-4.47-1.96-1.92-3.49-4.18-4.59-6.79-1.1-2.6-1.65-5.44-1.65-8.53s.55-5.93,1.65-8.53c1.1-2.6,2.64-4.86,4.62-6.79,1.98-1.92,4.31-3.41,7-4.47,2.68-1.06,5.61-1.59,8.77-1.59s5.91.51,8.59,1.53c2.68,1.02,4.94,2.55,6.79,4.59l-2.82,2.82c-1.72-1.76-3.62-3.03-5.7-3.81-2.08-.78-4.32-1.17-6.73-1.17-2.52,0-4.86.43-7.03,1.29-2.16.86-4.04,2.08-5.65,3.66s-2.85,3.42-3.75,5.52c-.9,2.1-1.35,4.41-1.35,6.94s.45,4.83,1.35,6.93c.9,2.1,2.15,3.94,3.75,5.52,1.6,1.58,3.48,2.8,5.65,3.66,2.16.86,4.5,1.29,7.03,1.29s4.64-.4,6.73-1.2c2.08-.8,3.98-2.08,5.7-3.84l2.82,2.82c-1.84,2.04-4.1,3.58-6.79,4.62-2.68,1.04-5.57,1.56-8.65,1.56Z"/>
    <path class="cls-1" d="m767.58,441.32h-4.44v-42.04h4.44v42.04Zm26.72-19.4h-27.2v-3.9h27.2v3.9Zm-.42-22.64h4.38v42.04h-4.38v-42.04Z"/>
    <path class="cls-1" d="m834.42,437.48h25.28v3.84h-29.72v-42.04h28.82v3.84h-24.38v34.35Zm-.48-19.4h22.22v3.78h-22.22v-3.78Z"/>
    <path class="cls-1" d="m888.16,441.32v-42.04h3.66l29.01,36.51h-1.92v-36.51h4.38v42.04h-3.66l-28.95-36.51h1.92v36.51h-4.44Z"/>
  </g>
  <path class="cls-1" d="m415.86,210.86h-49.7v49.7l12.99-12.99h0c1.37,5.33,2.09,10.94,2.09,16.72v.49c0,33.74-24.06,61.03-58.53,61.03s-59.02-27.79-59.02-61.52v-.49c0-19.24,7.83-36.47,20.95-47.71-7.81-3.56-15.1-8.25-21.76-14.03,0,0-.9-.81-1.17-1.05-.79-.68-1.54-1.39-2.28-2.11-17.43,16.47-27.73,39.85-27.73,65.38v.49c0,48.85,37.18,89.29,90.52,89.29s91-40.93,91-89.78v-.49c0-14.65-3.35-28.56-9.47-40.83l12.11-12.11Z"/>
  <path class="cls-1" d="m272.97,129.86h-36.64v3.52c0,.61,0,1.2.02,1.81,0,.61.02,1.25.07,1.86.05,1.52.15,3.01.32,4.5.83,8.69,2.99,17.13,6.32,25.07,1,2.37,2.1,4.7,3.33,6.98,4.72,8.91,10.99,16.99,18.65,23.84.24.2.46.42.69.61l.37.32c14.59,12.63,32.46,19.85,51.72,20.88.42.03.83.04,1.25.05v15.39c0,17.33-11.6,32.52-28.24,37.09h-2.49v6.79h68.28v-6.79h-2.49c-16.65-4.58-28.26-19.76-28.26-37.09v-15.39c.42-.02.84-.03,1.26-.05,19.24-1.03,37.13-8.25,51.77-20.9l.29-.27c.22-.22.47-.42.66-.59,18.26-16.33,28.74-39.73,28.74-64.23v-3.4h-135.61Zm65.4,141.93h-31.8c7.09-4.97,12.61-11.89,15.9-19.89,3.29,8,8.82,14.91,15.91,19.89Zm36.9-79.32l-.86.76c-13.46,11.65-29.94,18.31-47.66,19.24-2.84.15-5.73.15-8.57,0-17.75-.93-34.22-7.59-47.61-19.19l-.96-.86c-4.17-3.74-7.9-7.89-11.15-12.35,6.49-4.39,22.03-6.83,45.59.36,0,0,0,0,0,0,6.19,1.88,12.66,4.35,19.23,7.35,3.14,1.44,6.33,2.66,9.43,3.63.98.33,1.94.61,2.94.89,6.36,1.75,12.3,2.47,17.77,2.47,10.05,0,18.5-2.44,25.11-5.42-1.06,1.07-2.15,2.11-3.28,3.12Zm10.92-11.97c-8.96,6.33-25.98,14.4-49.44,7.94-.93-.26-1.83-.52-2.79-.84-2.98-.93-6-2.09-9-3.46-5.05-2.3-10.05-4.31-14.92-5.98,2.87-1.22,6.01-2.28,9.37-3.17,2.25-.6,4.68-1.14,7.39-1.63,6.31-1.1,13.13-1.66,20.27-1.66,17.14,0,32.32,3.23,40.48,6.86-.45.65-.9,1.3-1.37,1.93Zm3.6-5.32c-9.54-4.48-26.3-7.48-42.72-7.48-7.37,0-14.42.58-20.97,1.72-2.84.51-5.36,1.07-7.72,1.7-5.17,1.37-9.85,3.13-13.94,5.24-24.45-7.3-40.77-4.66-48.25.42-1.72-2.62-3.3-5.33-4.68-8.13-.59-1.13-1.13-2.28-1.64-3.43-3.89-8.84-6.17-18.36-6.63-28.17v-.17c-.02-.07-.02-.15-.02-.22h158.52c-.58,13.74-4.76,26.99-11.94,38.52Z"/>
</svg>