<svg xmlns="http://www.w3.org/2000/svg" xmlns:xlink="http://www.w3.org/1999/xlink" fill="none" height="379" viewBox="0 0 313 579" width="313"><clipPath id="a"><path d="m0 0h313v578.969h-313z"/></clipPath><g clip-path="url(#a)" fill="#000"><path d="m112.983 253.803c-8.834-15.905-.512-26.322 0-26.799l-5.331-4.422c-.459.582-11.8245 14.326-.582 34.548z"/><path d="m106.413 315.937c-1.738-3.513-2.544-7.414-2.341-11.329.204-3.915 1.411-7.712 3.505-11.025l-6.192-3.81c-2.7568 4.382-4.3323 9.405-4.573 14.579-.2407 5.173.8617 10.321 3.2 14.941z"/><path d="m245.542 264.214c-9.037-10.871-5.534-33.837-5.534-34.088l-6.698-1.066c0 1.066-4.074 26.316 6.983 39.576 2.092 2.534 4.721 4.569 7.696 5.959 2.976 1.39 6.223 2.099 9.506 2.075v-6.991c-2.28.044-4.54-.426-6.613-1.376-2.074-.95-3.907-2.356-5.363-4.112"/><path d="m289.141 477.917c-30.042 28.401-63.855 52.516-100.483 71.66-3.759-5.826-13.501-21.189-24.005-39.122l-.413-.658-1.571-2.698-.582-1.066-1.571-2.645c-11.872-20.571-61.7613-49.177-91.3644-66.043-8.6825-5.086-15.5318-8.949-18.1156-10.772-11.8948-8.664-28.4218-27.866-27.8806-43.567.0893-7.367 2.0628-14.587 5.7321-20.974 1.7749.863 3.6022 1.748 5.5866 2.488 17.1508 6.33 34.7872 11.254 52.735 14.722l5.0687.968c4.6554.967 10.1552 2.033 15.2232 2.645 12.593 2.289 21.218 7.212 25.023 14.174 1.217 2.285 1.901 4.815 2.002 7.402s-.385 5.163-1.42 7.536c-3.148 7.469-14.211 12.036-27.508 11.227-12.5978-1.355-25.1043-3.458-37.4531-6.298l-1.5189 6.758c12.7291 2.946 25.6281 5.1 38.623 6.449 3.52.22 7.053.101 10.551-.355 11.522-1.626 20.303-7.061 23.748-15.241 1.416-3.328 2.069-6.932 1.912-10.546s-1.12-7.147-2.819-10.34c-2.843-4.932-7.024-8.956-12.058-11.605 3.958-1.034 7.536-3.186 10.306-6.199 2.329-2.592 4.167-5.587 5.424-8.838 16.073 1.137 32.221.54 48.166-1.783 12.35-1.729 24.572-4.273 36.587-7.615-.806 2.202-1.739 4.356-2.794 6.45-7.524 15.833-9.316 33.792-5.068 50.802l6.645-1.922c-3.725-15.306-2.132-31.426 4.516-45.705 10.557-20.886 5.936-34.554.71-44.155-3.595-6.634-6.731-13.508-9.386-20.572-6.027-14.865-8.762-30.862-8.019-46.887 1.745-22.762 12.843-32.311 22.631-33.686s15.229 4.165 18.477 17.326c3.549 15.899 17.557 42.623 33.24 63.457 8.495 11.7 14.183 25.204 16.621 39.461 2.438 14.258 1.562 28.886-2.562 42.749-14.059 47.191-17.004 67.774-12.942 93.03zm-275.5817-144.403c-.3675-4.146.8072-8.283 3.2987-11.616 2.4916-3.333 6.1246-5.628 10.2022-6.444 7.9202-1.119 21.2174 3.711 31.925 7.521 2.7875 1.014 5.4818 1.975 7.8678 2.738 3.6545 1.218 10.1489 3.001 17.1496 5.081 15.6308 4.375 36.9934 10.166 42.6794 13.982 2.511 1.456 4.703 3.403 6.447 5.725 1.743 2.322 3.002 4.972 3.702 7.791.184 2.402-.177 4.814-1.054 7.056-.878 2.243-2.25 4.258-4.015 5.895-7.565 8.489-25.378 5.086-38.2156 2.185l-5.0803-.961c-17.6265-3.456-34.9465-8.327-51.7923-14.565-14.4204-5.791-23.0447-14.891-23.0971-24.394zm3.7244-39.04c-7.2102-7.929-5.0745-16.208-2.031-22.558h-.1513c1.7234-3.069 4.1395-5.691 7.0556-7.659 2.916-1.967 6.2512-3.225 9.7391-3.672 1.6876-.198 3.3926-.198 5.0803 0 6.6981 1.747 15.2234 3.757 23.8012 5.587l24.4413 6.408c14.4902 3.053 28.3341 8.623 40.9041 16.459 2.825 2.267 5.152 5.093 6.838 8.3 1.686 3.208 2.694 6.728 2.962 10.343.142 2.52-.31 5.037-1.321 7.349s-2.552 4.353-4.498 5.957c-10.551 9.2-40.5962 3.915-54.8071 0-9.4914-3.093-48.0097-15.596-58.0598-26.514zm-9.35754-75.656c1.95503-4.306 5.00284-8.024 8.83974-10.784 3.837-2.76 8.3293-4.465 13.0294-4.946 19.0817-1.684 86.2777 13.26 94.2737 17.827l.756.461c8.706 5.039 17.668 10.119 18.25 21.096.663 12.292-8.933 19.919-28.625 22.61-11.569 1.626-33.0835-1.748-52.2176-5.797-7.8678-1.98-14.4669-3.705-19.489-5.074-1.3027-.293-2.6255-.487-3.9572-.583-6.4013-1.678-11.2663-3.151-13.3845-3.961-13.5999-5.133-21.77023-12.654-17.45809-30.843zm99.93584-18.055-6.849 1.014-16.0967-107.0524 6.8494-1.0195zm100.884 95.156v7.114c-21.235-.013-42.331 3.419-62.47 10.16l-2.241-6.548c20.848-7.072 42.7-10.727 64.711-10.825zm16.696-218.4742 3.404 30.4812-6.855.764-3.398-30.4879zm-182.3436 36.1792-12.8026-57.2576c-.123-.4697-.1504-.9593-.0804-1.4398.07-.4804.2359-.9418.4877-1.3567 16.6492-19.2607 60.1431-36.2784 110.6899-43.2871 22.904-3.33246 46.1-4.18603 69.186-2.54595l6.85 61.58065c-22.99-2.2569-46.171-1.6699-69.018 1.7478-19.749 2.6616-39.184 7.293-58.0129 13.8251l-4.2656-27.9648-6.797 1.0196 4.3645 29.4678c-18.8314 7.3175-33.7523 16.412-40.6016 26.217zm174.4296-105.01908c14.139 1.02575 27.935 4.84118 40.596 11.22668.364.2819.658.644.86 1.0583.202.4142.306.8694.304 1.3303l3.346 62.3381c-7.1-6.7523-20.292-11.652-38.164-14.2737zm76.123 289.90708c-4.725-6.346-9.128-12.926-13.193-19.715l-10.154-179.3999-4.26-77.6371c-.063-1.5987-.517-3.1575-1.322-4.5392-.806-1.3817-1.939-2.5438-3.299-3.3841-22.532-13.423109-70.047-17.50129-121.089-10.41107-52.0716 7.25917-97.1833 25.24977-115.1011 45.57087-.9573 1.2172-1.6243 2.6372-1.9501 4.1517-.3257 1.5145-.3016 3.0835.0705 4.5873l15.7122 69.8595.4598 2.033 15.2234 68.386c-8.4172-1.392-16.9504-1.954-25.4771-1.678-6.0709.464-11.8927 2.611-16.813 6.201-4.92029 3.59-8.7446 8.482-11.04431 14.125v.408c-5.94156 24.947 8.37406 34.094 21.56651 39.221-5.9819 2.573-10.8943 7.133-13.90823 12.91-2.64064 4.725-3.74206 10.158-3.15055 15.54s2.84643 10.444 6.45008 14.482c4.0034 3.918 8.6137 7.162 13.6522 9.607-5.6905 1.022-10.8079 4.101-14.3812 8.651-3.57319 4.551-5.35351 10.256-5.00303 16.033 0 9.322 5.88333 18.061 15.98573 24.697-4.2784 7.364-6.5686 15.717-6.6457 24.236-.6634 19.225 18.4649 40.648 30.7495 49.334 2.8399 2.08 9.4914 5.896 18.7267 11.18 27.2579 15.643 77.9797 44.761 89.0357 63.76l1.519 2.645 1.217 1.981c-19.938 15.852-59.8292 49.684-55.011 62.489 1.42 3.764 5.383 5.442 11.773 5.086 3.654 0 7.361-.582 11.115-1.118 22.228-3.547 43.768-10.54 63.844-20.729l3.492-1.748c37.536-19.727 72.17-44.552 102.921-73.769l1.268-1.275-.302-1.748c-4.266-24.848-1.577-44.61 12.535-91.765 4.413-14.889 5.339-30.596 2.707-45.901s-8.752-29.797-17.884-42.351"/><path d="m105.522 365.429c-5.9414-11.891-.256-17.332 0-17.583l-4.568-5.08c-.407.355-10.149 8.943-1.676 25.862z"/><path d="m102.88 414.303c-1.371-2.453-2.171-5.186-2.338-7.993s.302-5.615 1.372-8.215l-3.0666-1.573-3.0493-1.625c-1.577 3.573-2.3101 7.463-2.1426 11.366s1.2313 7.715 3.1086 11.14z"/></g></svg>