<svg xmlns="http://www.w3.org/2000/svg" xmlns:xlink="http://www.w3.org/1999/xlink" fill="none" height="391" viewBox="0 0 551 391" width="551"><clipPath id="a"><path d="m-86.6857 0h636.771v391h-636.771z"/></clipPath><g clip-path="url(#a)" fill="#000"><path d="m338.7 252.088-8.244-1.782c-6.934-5.214-15.257-8.256-23.919-8.743-3.709-.106-7.418.197-11.06.903l-57.894-12.865 1.782-7.436 97.125 22.083c37.316 7.924 75.336 12.063 113.483 12.354 29.043.714 58.007-3.327 85.745-11.962 2.322 1.776 4.538 3.688 6.634 5.726-51.568 22.415-138.518 15.882-203.652 2.114zm-.594 42.824c.642-2.873.979-5.806 1.004-8.749-.042-2.737-.345-5.464-.903-8.143 2.108-2.311 8.143-9.349 14.475-18.092 3.51.701 7.43 1.426 11.552 2.02-7.933 11.71-16.665 22.859-26.134 33.367zm-19.203 18.489c-6.4-3.377-13.137-6.073-20.1-8.042l3.932-10.744-4.751-1.711-4.128 11.154-1.693-.534c-6.315-1.502-12.731-2.542-19.197-3.113h.594c-2.049-4.263-3.116-8.93-3.124-13.66-.144-6.2 1.506-12.309 4.751-17.593v-.594c2.69-3.919 6.22-7.19 10.334-9.572 4.113-2.383 8.706-3.818 13.445-4.201 4.738-.383 9.502.296 13.945 1.987s8.452 4.352 11.737 7.789c3.284 3.436 5.76 7.562 7.248 12.077s1.95 9.305 1.352 14.021c-.597 4.716-2.239 9.239-4.806 13.24s-5.994 7.379-10.032 9.888zm-32.264 10.958c-3.617-.807-7.235-1.912-10.757-3.017-2.463-2.489-5.535-4.291-8.909-5.227l14.255 1.509v-5.025l-16.685-1.004v4.318l-4.217-.902c-5.939-3.617-6.836-5.94-6.735-6.635.594-2.31 11.053-4.425 28.843-1.306l-2.21 4.223 7.638 3.914 2.317-4.419-6.837-3.516c2.412 0 5.025.902 7.639 1.603 8.842 2 17.386 5.145 25.415 9.355 6.332 3.51 8.316 6.331 8.138 7.335-1.105 2.411-14.849 4.823-37.895-.802zm24.026 15.58c-9.086.04-18.139-1.075-26.943-3.321l-6.129-1.71v-7.84c2.613.707 5.227 1.609 7.941 2.215 8.521 2.133 17.252 3.313 26.034 3.516 3.687.171 7.379-.201 10.958-1.104l-1.407 5.63c-.202 1.105-3.22 2.709-10.454 3.011zm5.832 12.561c0 2.917-13.875 8.316-36.493 8.316s-36.487-5.429-36.487-8.316c0-2.886 10.056-6.836 27.643-8.036l-1.105 4.621 8.316 2.008 1.188-4.924-7.443-1.782h7.841c22.618.196 36.493 5.625 36.493 8.541zm-36.493 20.907c-22.618 0-36.487-5.422-36.487-8.345v-5.826c11.485 4.999 23.971 7.276 36.481 6.652 12.514.64 25.006-1.631 36.494-6.634v5.826c0 3.32-13.876 8.749-36.494 8.749zm-43.953-27.137c-5.748.003-11.489-.366-17.189-1.105-5.016-6.22-12.173-10.344-20.07-11.564v-1.704c11.575 5.19 24.214 7.567 36.885 6.937 12.521.625 25.014-1.682 36.487-6.736v7.235c-10.461-.104-20.797 2.28-30.156 6.955h-5.939zm-9.551 32.869c0 .594-1.408 1.61-3.92 2.714-1-10.76-3.751-21.285-8.143-31.158l-4.521 2.209c4.223 9.556 6.832 19.746 7.722 30.155-2.21 0-4.722 1.004-7.638 1.408-.941-14.423-3.23-28.727-6.837-42.723l-4.722 1.414c3.369 13.955 5.488 28.183 6.332 42.514h-12.622c0-5.832 1.705-20.912 3.314-33.261l-4.722-.594c-1.71 12.473-3.017 27.75-3.415 33.576-3.383-.213-6.745-.683-10.056-1.408.78-14.194 4.986-27.989 12.26-40.204l-3.315-2.013c1.883-1.094 3.917-1.906 6.035-2.412.499 1.711 2.311 2.816 5.126 2.816.981.139 1.982-.016 2.875-.445s1.639-1.114 2.144-1.967c7.083 3.46 13.085 8.792 17.355 15.418 4.271 6.626 6.647 14.294 6.873 22.173.005.74-.029 1.479-.101 2.216zm-41.108-37.419c-7.214 12.264-11.514 26.021-12.569 40.21-3.314-1.104-5.126-2.209-5.226-2.916v-.653c-.048-.569-.048-1.142 0-1.711.153-6.779 1.835-13.437 4.92-19.476s7.495-11.303 12.898-15.4zm41.839-23.965-1.117 4.591 8.446 2.013 1.105-4.822-7.437-1.812h7.841c23.622 0 36.487 5.53 36.487 8.44s-12.865 8.315-36.487 8.315-36.487-5.529-36.487-8.315 9.746-7.234 27.643-8.44zm106.747-56.401 4.122-3.018-.915-.92 9.456 1.906c-4.229 5.732-8.244 10.561-10.762 13.471-2.745-6.847-7.475-12.717-13.582-16.854-6.108-4.138-13.313-6.354-20.69-6.363-5.935-.004-11.775 1.481-16.988 4.318l2.614-2.608c5.909-2.971 12.49-4.357 19.096-4.021 5.365.152 10.629 1.494 15.411 3.931 4.782 2.436 8.962 5.906 12.238 10.158zm-109.052-62.365c.309-.547.577-1.117.802-1.704l7.721-34.978c.101-.565.101-1.144 0-1.71 31.766 7.127 176.806 40.204 227.774 52.368 24.612 5.475 48.135 15.028 69.595 28.266-54.051 17.491-137.206 10.055-193.199-1.604l-97.844-21.815c-.091-3.545-1.096-7.007-2.916-10.05-2.671-4.378-6.958-7.529-11.933-8.773zm-57.799 10.46c-4.288.062-8.546-.722-12.531-2.309-3.984-1.587-7.616-3.945-10.687-6.939-5.847-4.632-10.847-10.243-14.778-16.583-.878-1.714-1.359-3.604-1.407-5.53 5.126 5.126 10.958 6.433 14.849 3.517 3.89-2.917 4.621-10.05 0-17.29h1.906l.701.808c1.84 2.505 3.52 5.124 5.031 7.84 5.033 9.836 12.913 17.926 22.612 23.217 3.63 1.817 7.405 3.329 11.286 4.52-4.354 4.974-10.416 8.133-16.988 8.85zm-39.403 6.533c-5.925-2.06-11.374-5.294-16.02-9.509-4.645-4.215-8.393-9.324-11.018-15.021-4.9992-8.094-8.8249-16.857-11.3621-26.026-.2851-1.934-.2851-3.899 0-5.833-.0666.637.1142 1.275.5049 1.782 3.0114 9.052 9.248 13.168 14.6712 11.362 5.423-1.806 7.947-8.85 4.924-17.896-.58-1.432-1.284-2.811-2.103-4.122 1.338.803 2.585 1.749 3.718 2.822 3.579 3.729 6.716 7.858 9.349 12.306.715 2.538 1.762 4.97 3.113 7.235-.715 2.091-1.004 4.305-.85 6.511.154 2.205.748 4.357 1.747 6.33 4.19 6.977 9.605 13.142 15.983 18.198 2.698 2.357 5.669 4.381 8.85 6.029-2.983 2.419-6.434 4.195-10.136 5.217s-7.576 1.268-11.377.722zm-46.2464-10.934c-9.0936-4.493-16.0338-12.409-19.2979-22.012-2.9889-7.677-4.9172-15.726-5.7317-23.924 3.3202 7.341 8.7491 10.857 13.6612 9.248 4.912-1.61 7.9413-8.945 4.9239-17.991.04-.196.04-.398 0-.594 3.9018 4.1 7.0344 8.868 9.2481 14.077-.0476.836-.0476 1.675 0 2.512 2.6146 9.747 6.645 19.059 11.9624 27.636 2.6497 4.905 5.8544 9.488 9.5514 13.661-8.159 2.079-16.7907 1.188-24.353-2.512zm-37.491-20.099c-8.0691-3.911-14.3044-10.802-17.3913-19.22-2.3637-5.234-3.7603-10.852-4.1221-16.583-.101-.7-.101-1.41 0-2.109-.0475.734-.0475 1.47 0 2.204 1.9126 7.846 6.9375 11.878 11.7664 10.762 4.829-1.117 7.4305-7.038 5.4289-14.979v-1.188c.6413.625 1.2368 1.296 1.7819 2.007 4.2459 5.671 7.6323 11.938 10.0498 18.597 1.2607 6.838 3.0763 13.562 5.4289 20.105-2.0186.951-4.2109 1.477-6.4412 1.547-2.2303.069-4.4512-.32-6.5251-1.143zm-51.89467-83.634c-2.34393-5.8596-6.40913-10.8711-11.65953-14.3733-1.4705-1.0886-3.0657-1.9978-4.7517-2.7084l-3.0114-1.1107c-15.8173-4.0169-32.1928-5.3738-48.4556-4.0151 6.1857-17.2655 16.2268-32.8934 29.3597-45.6955 13.133-12.8022 29.0121-22.4416 46.43014327-28.18529 32.42275673 7.36359 64.16605673 17.45099 94.89175673 30.15459 27.7527 14.4112 52.5167 33.9618 72.9747 57.6127 13.156 16.036 23.366 34.277 30.155 53.877l-10.851-2.62c-1.159-2.016-2.437-3.961-3.826-5.826-3.372-4.409-7.53-8.157-12.265-11.053-7.657-4.985-14.885-10.599-21.608-16.785-8.759-8.385-16.424-17.8425-22.814-28.1474l-1.782-2.0075-4.123 2.8093 1.711 2.5183c6.66 10.694 14.664 20.4893 23.818 29.1453 11.363 9.449 17.896 13.975 22.22 16.986 4.316 2.621 8.1 6.03 11.155 10.05 3.53 4.934 6.331 10.351 8.315 16.084 1.747 4.53 4.005 8.847 6.73 12.865-1.581-1.209-3.485-1.921-5.471-2.045-1.986-.125-3.964.343-5.684 1.344-4.425 3.415-3.92 11.356 2.513 19.6 2.791 3.501 6.196 6.464 10.05 8.743-8.744-.582-17.184-3.438-24.483-8.287s-13.205-11.521-17.13-19.355c-1.61-2.714-3.315-5.524-5.227-8.244l-1.907-2.008c-12.679-11.648-28.048-19.972-44.731-24.227-57.3417-10.067-65.182-43.7377-65.182-44.0347l-4.924.9978c1.5709 5.9532 4.3892 11.5049 8.268 16.2859l-15.5797-3.617c-3.1203-.754-6.3613-.867-9.5264-.331-3.1651.537-6.18841 1.71-8.88648 3.449-1.6989 1.144-3.25087 2.493-4.62104 4.015-4.59338-2.715-8.13637-6.9-10.05581-11.879zm365.00307 65.138c5.025-4.027 10.757-8.547 17.991-15.181 4.922-4.895 10.673-8.877 16.988-11.76-15.429 13.061-29.809 27.312-43.009 42.621l-7.722-1.782c4.831-5.167 10.036-9.971 15.574-14.373zm50.261-27.244c-7.84 8.648-27.441 32.168-40.211 47.242l-13.263-3.011c24.524-27.143 42.919-44.029 49.554-45.437 1.425.117 2.838.353 4.223.707zm7.128 5.429c-6.195 16.57-14.725 32.17-25.333 46.327l-15.983-3.724c20.099-23.514 33.368-40.198 38.898-45.829 1.042.757 1.958 1.673 2.715 2.715zm0 26.234c-4.027 8.345-8.244 17.593-11.06 23.823l-8.945-2.114c9.35-12.981 17.143-27.015 23.218-41.814 1.147 6.873.019 13.932-3.213 20.105zm133.885 78.704c-19.007-21.81-57.294-34.675-86.041-41.612l-53.867-12.663c2.714-6.135 6.836-14.849 10.555-22.819 2.636-4.564 4.084-9.716 4.212-14.984.128-5.269-1.07-10.485-3.482-15.171-1.128-1.924-2.633-3.601-4.425-4.93l-2.209-1.502c-2.64-1.679-5.575-2.84-8.648-3.421-9.45-1.907-20.1 2.821-32.965 14.581-7.039 6.533-12.67 10.952-17.695 14.848-6.565 4.992-12.686 10.542-18.294 16.589l-107.151-24.351-24.222-5.684c-7.107-21.382-18.077-41.278-32.365-58.7-20.929-24.0765-46.238-43.9614-74.584-58.5986-30.7911-15.3773-93.40684-30.35657-96.626129-31.1405777h-1.187929c-.706822 0-61.617842 17.6935777-80.416842 79.1075777l-.594 1.9065c-3.076 10.7972-4.7645 21.9421-5.0249 33.1661 0 12.366 2.3105 19.303 7.8403 21.115.8345.101 1.678.101 2.5125 0 14.172 0 38.0137-31.48 49.1565-47.2488 1.6014.6834 3.1465 1.4916 4.621 2.4174 4.4878 3.0961 7.9792 7.4294 10.0499 12.4724 2.1497 5.749 6.09722 10.65 11.25563 13.976-2.03044 3.333-3.28843 7.079-3.68159 10.962-.39315 3.884.08852 7.806 1.40964 11.478 1.32111 3.673 3.4481208 7.003 6.22482 9.746 2.7767 2.743 6.13257 4.829 9.8212 6.106l5.9396 1.609c.9436 3.655 2.1201 7.246 3.5222 10.751 3.5077 9.742 10.7359 17.697 20.0998 22.118 2.6008.991 5.3599 1.503 8.1432 1.509 3.1231-.031 6.2048-.717 9.0461-2.014 4.2515 8.771 11.3344 15.854 20.1057 20.105 5.5111 2.687 11.5572 4.096 17.6883 4.122 4.336-.065 8.639-.777 12.764-2.114 4.714 4.597 10.587 7.828 16.994 9.349 1.819.367 3.673.536 5.529.504 8.113-.207 15.926-3.108 22.209-8.244v-.504c3.621 1.43 7.464 2.214 11.356 2.316h2.115c4.276-.447 8.421-1.734 12.198-3.787 3.778-2.053 7.113-4.831 9.814-8.175 2.222.417 4.475.652 6.736.701 4.075.267 8.099-1.027 11.255-3.617l10.056 2.613 6.635 1.509c3.443 1.081 6.388 3.355 8.304 6.413 1.917 3.059 2.679 6.7 2.15 10.271l-3.018 12.668 53.077 12.36c-5.003 6.383-9.568 13.098-13.661 20.1l-2.715 4.751c-2.284 4.602-3.547 9.642-3.702 14.777-.156 5.134.799 10.242 2.799 14.974-10.055 0-18.294 1.508-20.105 6.735l-1.408 5.94c-3.516 0-7.128-.505-10.757-.505-20.099 0-41.108 4.223-41.411 13.268l-.594 8.238c-17.593 2.014-31.48 24.423-31.48 43.424-.047.87-.047 1.743 0 2.613.594 7.543 18.294 11.059 34.45 11.059s33.856-3.516 34.48-11.285c.047-.805.047-1.612 0-2.417-.325-9.406-3.287-18.531-8.548-26.335 4.123 0 8.548.706 12.973.706h2.809v13.661c0 9.153 21.514 13.37 41.518 13.37 20.005 0 41.512-4.217 41.512-13.37v-12.473c0-3.314-2.821-5.939-7.24-7.941 6.836-.701 10.959-2.815 11.76-6.331l2.923-12.176c.802-3.118-1.105-6.433-5.429-10.05 2.037-1.448 3.923-3.098 5.631-4.924 14.922-14.856 28.38-31.114 40.187-48.549 27.456 4.467 55.215 6.82 83.031 7.039 32.425 1.15 64.727-4.572 94.784-16.791l3.018-1.402z"/><path d="m280.305 273.63-2.35 4.442 17.594 9.307 2.349-4.442z"/><path d="m312.868 263.949-4.722-1.509-5.731 18.395 4.823 1.509z"/><path d="m308.958 286.798-1.108 4.901 19.604 4.433 1.109-4.901z"/><path d="m279.559 293.397 9.046-2.72 1.443 4.816-9.052 2.715z"/><path d="m296.963 263.968-4.954.843 1.533 9.017 4.954-.842z"/><path d="m320.541 273.021-6.807 7.117 3.632 3.473 6.806-7.117z"/><path d="m309.381 299.18-3.619 3.486 6.626 6.878 3.619-3.486z"/><path d="m228.47 323.981-17.142 2.26.657 4.981 17.142-2.259z"/><path d="m255.451 319.517-14.601 1.488.509 4.999 14.601-1.488z"/><path d="m236.738 325.523-1.185 4.883 11.331 2.75 1.185-4.883z"/><path d="m272.453 351.183-17.142 2.26.657 4.982 17.142-2.26z"/><path d="m299.39 346.679-14.601 1.489.51 4.999 14.601-1.489z"/><path d="m279.505 357.496 1.182-4.889 11.333 2.733-1.176 4.888z"/><path d="m294.46 313.145-.676 4.979 14.543 1.977.677-4.979z"/><path d="m289.299 316.458-2.297 4.469 10.37 5.329 2.297-4.469z"/></g></svg>