<svg xmlns="http://www.w3.org/2000/svg" fill="none" height="427" viewBox="0 0 697 427" width="697"><g fill="#000"><path d="m45.7758 229.083 17.6306-12.849-15.2409-7.526-8.3905 17.471-21.8258-10.751 22.0913-18.171-16.7809-8.226-23.2596 48.438 13.1698-2.634 50.0242 24.622 6.1069 12.096 15.5596-32.471-13.223 2.742z"/><path d="m122.016 143.157c4.266 3.845 7.747 8.489 10.248 13.672-15.451 17.143-39.2917 13.725-54.3711 0-4.2598-3.825-7.7091-8.475-10.1415-13.672 15.398-17.036 39.1326-13.778 54.2646 0zm-46.4594 35.408c3.6072 3.548 7.8951 6.321 12.6024 8.149s9.7353 2.673 14.778 2.483c5.042-.19 9.993-1.41 14.551-3.587 4.559-2.177 8.628-5.265 11.962-9.075 6.058-8.018 8.896-18.035 7.949-28.06-.947-10.026-5.609-19.327-13.06-26.054s-17.145-10.389-27.157-10.257c-10.0118.131-19.608 4.046-26.882 10.966-14.0175 15.701-11.7874 40.161 5.3097 55.541"/><path d="m163.06 79.8725c-2.801-4.9372-4.605-10.3816-5.31-16.0214 20.018-11.215 41.522-.4807 51.451 17.3565 2.797 5.0347 4.6 10.5657 5.31 16.2886-20.071 11.2688-41.575.3203-51.504-17.4635zm55.592-18.0508c-2.289-4.5733-5.47-8.6358-9.354-11.9457s-8.391-5.7991-13.252-7.3192-9.977-2.04-15.042-1.5286-9.976 2.0435-14.44 4.5051c-18.318 10.3605-23.946 34.2325-12.69 54.3127 2.292 4.521 5.476 8.525 9.356 11.769 3.881 3.244 8.378 5.659 13.217 7.098 4.838 1.439 9.918 1.872 14.928 1.272 5.011-.599 9.847-2.218 14.215-4.759 4.405-2.586 8.248-6.036 11.301-10.145 3.053-4.11 5.254-8.7939 6.472-13.7753 1.219-4.9813 1.429-10.1581.62-15.2229-.809-5.0649-2.622-9.9146-5.331-14.2611z"/><path d="m299.89 69.8859-19.646-3.8452-9.345-46.0348c7.401.7706 14.344 3.9705 19.757 9.1056 5.412 5.135 8.993 11.9195 10.19 19.3057 1.434 7.0912 1.106 14.429-.956 21.3619zm16.672-31.7225c-.936-5.192-2.9-10.142-5.775-14.5564-2.874-4.4143-6.601-8.2031-10.959-11.1416-4.357-2.93863-9.257-4.96725-14.409-5.96538s-10.451-.94548-15.582.15467l-28.46 5.87451 10.089 8.9185 11.256 54.9535-5.787 12.1229 29.415-6.0346c25.168-5.3405 34.088-25.7947 30.319-44.2193"/><path d="m417.17 71.151 5.926-24.3733 20.053 4.9491-5.925 24.3734-10.371 8.4615 34.445 8.5147-5.344-12.3463 13.227-54.1749 10.424-8.4614-34.445-8.51475 5.291 12.34635-5.079 20.8078-20.053-4.9492 5.079-20.8078 10.476-8.46149-34.497-8.51471 5.291 12.3463-13.228 54.1748-10.37 8.4615 34.497 8.5147z"/><path d="m520.286 90.118 17.569-10.9241-2.638 20.6284zm-.422 35.795 30.706 19.939-1.002-13.523 10.13-77.6346-66.319 41.2568-12.821 4.4018 22.212 14.424-.95-13.311 9.655-5.9922 22.37 14.4772-1.477 11.295z"/><path d="m588.034 178.271 45.125-38.915 13.306-.642-22.825-27.406-2.893 13.168-42.075 36.291-13.253.75 34.133 40.948 14.095-12.151z"/><path d="m652.18 261.499-22.091-18.025 53.688-26.053 13.223 2.765-15.56-32.114-6.053 11.91-50.078 24.298-13.17-2.605 23.207 47.959z"/><path d="m53.6808 414.987-16.2476-6.889v-20.614c4.8541.428 9.3711 2.675 12.6557 6.295 3.2847 3.621 5.0973 8.35 5.0786 13.251-.0565 2.717-.5589 5.405-1.4867 7.957zm-16.2476-60.935c3.6109.274 7.0092 1.823 9.5939 4.374s4.1893 5.939 4.5299 9.565c0 5.714-4.4071 11.162-14.1238 12.016zm24.2652 27.611c2.7172-1.707 4.9729-4.063 6.5662-6.858 1.5934-2.795 2.475-5.943 2.5664-9.164 0-11.535-10.6193-20.614-23.9466-20.614h-36.90216l8.07066 10.681v55.968l-8.07066 10.681h38.49506c12.5309 0 25.4334-8.491 25.4334-21.949-.1194-3.947-1.3238-7.783-3.4796-11.082-2.1558-3.3-5.1786-5.934-8.7327-7.61"/><path d="m143.361 384.653-15.929-6.569v-23.23c5.048.89 9.638 3.498 13.002 7.387s5.297 8.823 5.476 13.974c.004 3.033-.823 6.008-2.39 8.599zm5.841 3.632c10.619-4.219 15.504-11.589 15.504-19.76 0-11.962-11.257-23.498-28.725-23.498h-36.1592l8.1242 10.681v55.968l-8.1242 10.681h35.4682l-8.176-10.681v-24.78l24.849 38.131 18.849-11.321-10.301-7.424z"/><path d="m247.908 412.531c-22.99 0-36.371-20.241-36.371-40.642-.019-5.714 1.081-11.376 3.239-16.662 22.938 0 36.424 20.027 36.424 40.481-.014 5.768-1.132 11.479-3.292 16.823zm-16.46-68.946c-21.238 0-37.539 17.997-37.539 41.068-.209 5.07.61 10.129 2.407 14.87 1.798 4.741 4.536 9.065 8.048 12.707 3.512 3.643 7.724 6.528 12.381 8.48 4.656 1.952 9.659 2.93 14.703 2.875 10.562 0 20.691-4.22 28.159-11.731 7.468-7.512 11.664-17.699 11.664-28.322s-4.196-20.811-11.664-28.322c-7.468-7.512-17.597-11.732-28.159-11.732"/><path d="m390.821 355.318-17.11 38.474-25.664-54.111-18.704 11.338 6.748 6.878 6.749 14.24-9.618 21.655-25.611-54.111-18.704 11.338 6.748 6.878 32.732 69.103 19.66-43.955 20.829 43.955 31.988-71.682 8.182-10.855h-26.302z"/><path d="m444.413 391.896 8.913-18.769 8.859 18.769zm13.87-51.256-33.487 70.928-8.122 10.634h26.368l-7.963-10.634 4.905-10.315h26.368l4.851 10.315-8.121 10.634h36.546l-8.121-10.634z"/><path d="m568.984 384.653-15.929-6.569v-23.23c5.048.89 9.638 3.498 13.002 7.387s5.297 8.823 5.476 13.974c-.023 3.029-.847 5.997-2.39 8.599zm5.841 3.632c10.619-4.219 15.504-11.589 15.504-19.76 0-11.963-11.31-23.498-28.725-23.498h-36l8.071 10.681v55.968l-8.071 10.681h35.628l-8.177-10.681v-24.78l24.849 38.131 18.85-11.322-10.301-7.423z"/><path d="m687.465 344.953h-25.614l8.128 10.648-13.849 23.265-23.368-38.226-18.715 11.181 7.967 7.24 19.785 32.263v20.177l-8.181 10.701h35.88l-8.235-10.701v-22.786z"/></g></svg>