<svg xmlns="http://www.w3.org/2000/svg" xmlns:xlink="http://www.w3.org/1999/xlink" fill="none" height="560" viewBox="0 0 438 560" width="438"><clipPath id="a"><path d="m0 0h438v559.212h-438z"/></clipPath><g clip-path="url(#a)" fill="#000"><path d="m281.267 511.223c-58.34 4.547-94.747 2.918-107.928-5.079-2.561-1.418-4.653-3.552-6.021-6.141-1.367-2.589-1.952-5.521-1.681-8.438 1.225-4.842 7.235-5.835 12.488-6.245 13.528-1.052 81.676-6.367 94.915-8.938l-.757-3.911v-3.964c-.872 0-88.784 5.078-111.547 0-22.763-5.079-27.366-13.202-28.369-19.679-.266-2.172.122-4.374 1.115-6.323.993-1.95 2.546-3.557 4.459-4.617 11.036-3.862 22.505-6.352 34.148-7.413l13.596-2.161c33.549-5.431 68.899-8.233 70.008-8.291l-.294-3.975v-3.964c-1.051 0-106.646 6.714-129.163 2.045-14.352-2.98-23.924-8.937-25.674-15.83-.316-2.162-.019-4.369.858-6.371.877-2.001 2.298-3.716 4.102-4.948 14-11.682 86.809-20.262 124.098-22.422l8.631-.41h1.692v-7.944l-7.586.352c-118.997 5.841-200.0113 5.841-211.8159.993-2.2742-1.138-4.2184-2.841-5.6469-4.946-1.4284-2.105-2.2933-4.542-2.5118-7.077-.2221-2.298.2065-4.613 1.2367-6.678 1.0303-2.066 2.6207-3.8 4.5894-5.004 7.2919-4.91 47.4917-17.518 98.2405-23.827 41.25-5.257 119.37-9.337 142.37-10.514 1.489-.069 2.933-.533 4.184-1.344 1.25-.811 2.263-1.94 2.934-3.272.666-1.301.969-2.757.876-4.215-.092-1.459-.576-2.865-1.401-4.071-6.719-9.701-14.046-18.966-21.939-27.738-18.912-21.602-24.964-60.428-12.95-83.067 1.731-3.93 4.444-7.348 7.876-9.926 3.433-2.578 7.471-4.229 11.725-4.794 3.17-.456 6.403-.166 9.442.847 3.038 1.013 5.799 2.721 8.063 4.988 4.04 6.019 7.42 12.456 10.081 19.2 6.189 13.775 13.244 29.195 23.336 38.595 8.846 7.305 18.665 13.344 29.173 17.943 9.992 4.85 19.729 10.209 29.173 16.056 28.001 17.518 48.332 69.067 48.479 69.598l7.455-2.923c-3.736-9.088-7.983-17.958-12.719-26.566 8.301 6.66 14.255 15.803 16.99 26.092 13.343 50.637 14.143 103.767 2.332 154.783-10.732 3.912-77.94 26.623-140.483 31.544zm145.858-188.178c-1.859-7.366-5.204-14.273-9.829-20.298-4.624-6.025-10.431-11.04-17.064-14.737-1.9-.954-3.848-1.81-5.836-2.566-7.91-13.143-18.466-24.496-30.996-33.337-9.746-5.983-19.793-11.46-30.102-16.408-9.905-4.272-19.174-9.891-27.544-16.697-8.931-8.055-15.572-22.886-21.466-35.966-2.902-7.423-6.661-14.481-11.201-21.03-3.086-3.257-6.882-5.758-11.091-7.308-4.21-1.55-8.72-2.107-13.18-1.629-5.536.747-10.797 2.871-15.302 6.178-4.505 3.306-8.111 7.689-10.487 12.748-13.659 25.635-7.234 67.784 14.006 92.078 7.893 8.396 14.891 17.592 20.882 27.438-11.962.584-38.876 1.982-67.733 3.975-3.909-6.309-58.346-94.239-62.37-108.249-4.024-14.011 7.119-43.206-11.085-73.394-20.3412-33.6784-25.6524-64.9178-29.8552-113.843l-14.3474 3.44359c1.7442 40.34521 6.5301 67.08421 21.9334 96.27851l-9.6297 3.3859c-15.9233-30.1881-20.0683-56.5749-21.76-97.44579l-14.7098 3.50141c2.217 41.45448 7.5913 68.95588 23.3413 98.43938l-9.2776 3.27c-16.5696-30.5927-21.5394-57.7997-23.7459-99.2542l-13.9427 3.3858c2.1014 42.5848 7.1762 71.227 23.336 101.1254l-8.6945 3.097c-16.6852-31.0659-21.8178-59.2087-23.977-101.946l-15.40327109 3.6802c3.91386109 89.8538 33.40177109 132.5908 61.03517109 156.4128 4.9696 3.913 10.2139 7.464 15.6922 10.625 7.7146 4.676 14.2277 11.095 19.0176 18.742l54.1424 91.836c-12.892 1.115-24.97 2.282-35.004 3.57-49.0675 6.246-92.2986 18.795-101.6288 25.046-3.1386 2.009-5.65397 4.855-7.2626 8.218-1.60864 3.362-2.24652 7.108-1.84171 10.814.34966 3.959 1.73104 7.757 4.00619 11.014 2.27512 3.258 5.36452 5.861 8.95942 7.55 7.2393 3.096 31.3897 4.206 62.6585 4.206 17.5047 0 37.226-.352 57.468-.936-16.916 3.501-30.801 7.765-36.874 12.786-3.0057 2.148-5.3236 5.123-6.6729 8.564-1.3494 3.441-1.6721 7.199-.9292 10.82 2.5059 10.105 14.1211 17.985 31.7361 21.66 11.093 1.549 22.295 2.175 33.491 1.872h5.837c-10.16 1.075-20.141 3.45-29.698 7.066-3.415 1.835-6.192 4.666-7.963 8.116s-2.453 7.358-1.956 11.205c2.627 17.517 20.941 23.353 34.537 26.213 4.471.849 8.994 1.397 13.538 1.64-3.301.244-6.448 1.493-9.019 3.579-2.57 2.087-4.441 4.911-5.36 8.093-.705 4.575-.007 9.256 2.002 13.425 2.01 4.17 5.235 7.632 9.251 9.928 9.693 5.841 28.595 8.701 57.358 8.701 15.554 0 34.009-.836 55.367-2.508 28.069-2.58 55.887-7.402 83.189-14.421.704 4.027 1.691 9.574 3.094 15.531 3.972 16.876 11.032 37.427 22.065 38.904h1.397c6.651 0 12.777-6.535 18.613-19.909 29.928-68.094 35.894-144.332 16.922-216.258"/><path d="m38.3351 329.47-3.8561 6.945c1.241.674 2.3347 1.59 3.2171 2.693.8823 1.103 1.5354 2.372 1.9208 3.731.0555 1.382-.2048 2.757-.7611 4.023-.5562 1.265-1.3938 2.387-2.4488 3.28l5.8367 5.425c1.9081-1.75 3.378-3.925 4.2906-6.349s1.2425-5.029.9629-7.604c-.5993-2.549-1.7231-4.945-3.2997-7.035-1.5767-2.091-3.5715-3.829-5.8572-5.104"/><path d="m271.117 205.869c-3.53-.021-6.957-1.189-9.766-3.329-2.809-2.139-4.847-5.134-5.808-8.533s-.792-7.019.481-10.314 3.581-6.086 6.577-7.954l-4.202-6.772c-4.479 2.772-7.933 6.929-9.838 11.842-1.906 4.913-2.158 10.314-.72 15.384 1.438 5.069 4.488 9.532 8.688 12.71 4.201 3.179 9.322 4.901 14.588 4.904 2.496.026 4.979-.35 7.355-1.114l-2.39-7.587c-1.601.521-3.276.778-4.959.763"/></g></svg>